%FSLAX45Y45*%
G04 Gerber Fmt 4.5, Leading zero omitted, Abs format (unit mm)*
G04 Created by KiCad (PCBNEW 6.0.5-a6ca702e91~116~ubuntu22.04.1) date 2022-06-23 13:03:09*
%MOMM*%
%LPD*%
G01*
G04 APERTURE LIST*
%TA.AperFunction,Profile*%
%ADD10C,0.100000*%
%TD*%
%ADD11C,0.200000*%
G04 APERTURE END LIST*
D10*
X11734800Y-8915400D02*
X11734800Y-6375400D01*
X24434800Y-6375400D02*
X24434800Y-8915400D01*
X24434800Y-8915400D02*
X11734800Y-8915400D01*
X11734800Y-6375400D02*
X24434800Y-6375400D01*
D11*
X11987419Y-9230876D02*
X11987419Y-9030876D01*
X12035038Y-9030876D01*
X12063609Y-9040400D01*
X12082657Y-9059448D01*
X12092181Y-9078495D01*
X12101705Y-9116590D01*
X12101705Y-9145162D01*
X12092181Y-9183257D01*
X12082657Y-9202305D01*
X12063609Y-9221352D01*
X12035038Y-9230876D01*
X11987419Y-9230876D01*
X12187419Y-9230876D02*
X12187419Y-9097543D01*
X12187419Y-9135638D02*
X12196943Y-9116590D01*
X12206467Y-9107067D01*
X12225514Y-9097543D01*
X12244562Y-9097543D01*
X12311228Y-9230876D02*
X12311228Y-9097543D01*
X12311228Y-9030876D02*
X12301705Y-9040400D01*
X12311228Y-9049924D01*
X12320752Y-9040400D01*
X12311228Y-9030876D01*
X12311228Y-9049924D01*
X12435038Y-9230876D02*
X12415990Y-9221352D01*
X12406467Y-9202305D01*
X12406467Y-9030876D01*
X12539800Y-9230876D02*
X12520752Y-9221352D01*
X12511228Y-9202305D01*
X12511228Y-9030876D01*
X12768371Y-9230876D02*
X12768371Y-9030876D01*
X12835038Y-9173733D01*
X12901705Y-9030876D01*
X12901705Y-9230876D01*
X13082657Y-9230876D02*
X13082657Y-9126114D01*
X13073133Y-9107067D01*
X13054086Y-9097543D01*
X13015990Y-9097543D01*
X12996943Y-9107067D01*
X13082657Y-9221352D02*
X13063609Y-9230876D01*
X13015990Y-9230876D01*
X12996943Y-9221352D01*
X12987419Y-9202305D01*
X12987419Y-9183257D01*
X12996943Y-9164210D01*
X13015990Y-9154686D01*
X13063609Y-9154686D01*
X13082657Y-9145162D01*
X13177895Y-9097543D02*
X13177895Y-9297543D01*
X13177895Y-9107067D02*
X13196943Y-9097543D01*
X13235038Y-9097543D01*
X13254086Y-9107067D01*
X13263609Y-9116590D01*
X13273133Y-9135638D01*
X13273133Y-9192781D01*
X13263609Y-9211829D01*
X13254086Y-9221352D01*
X13235038Y-9230876D01*
X13196943Y-9230876D01*
X13177895Y-9221352D01*
X13358848Y-9211829D02*
X13368371Y-9221352D01*
X13358848Y-9230876D01*
X13349324Y-9221352D01*
X13358848Y-9211829D01*
X13358848Y-9230876D01*
X13358848Y-9107067D02*
X13368371Y-9116590D01*
X13358848Y-9126114D01*
X13349324Y-9116590D01*
X13358848Y-9107067D01*
X13358848Y-9126114D01*
M02*
