M48
; DRILL file {KiCad 6.0.5-a6ca702e91~116~ubuntu22.04.1} date Thu 23 Jun 2022 02:32:37 PM PDT
; FORMAT={-:-/ absolute / inch / decimal}
; #@! TF.CreationDate,2022-06-23T14:32:37-07:00
; #@! TF.GenerationSoftware,Kicad,Pcbnew,6.0.5-a6ca702e91~116~ubuntu22.04.1
; #@! TF.FileFunction,Plated,1,2,PTH
FMAT,2
INCH
; #@! TA.AperFunction,Plated,PTH,ComponentDrill
T1C0.0400
; #@! TA.AperFunction,Plated,PTH,ComponentDrill
T2C0.0433
; #@! TA.AperFunction,Plated,PTH,ComponentDrill
T3C0.0866
%
G90
G05
T1
X5.359Y-3.322
X5.459Y-3.322
X5.559Y-3.322
X5.659Y-3.322
X5.759Y-3.322
X5.859Y-3.322
X5.959Y-3.322
X6.059Y-3.322
X6.159Y-3.322
X6.259Y-3.322
X6.359Y-3.322
X6.459Y-3.322
T2
X3.5756Y-3.9676
X3.674Y-3.9676
X3.7724Y-3.9676
X4.6756Y-3.9676
X4.774Y-3.9676
X4.8724Y-3.9676
X5.7756Y-3.9676
X5.874Y-3.9676
X5.9724Y-3.9676
X6.8756Y-3.9676
X6.974Y-3.9676
X7.0724Y-3.9676
X7.9756Y-3.9676
X8.074Y-3.9676
X8.1724Y-3.9676
T3
X3.4968Y-3.692
X3.8512Y-3.692
X4.5968Y-3.692
X4.9512Y-3.692
X5.6968Y-3.692
X6.0512Y-3.692
X6.7968Y-3.692
X7.1512Y-3.692
X7.8968Y-3.692
X8.2512Y-3.692
T0
M30
