G04 #@! TF.GenerationSoftware,KiCad,Pcbnew,6.0.5-a6ca702e91~116~ubuntu22.04.1*
G04 #@! TF.CreationDate,2022-06-23T14:32:34-07:00*
G04 #@! TF.ProjectId,slim_deej,736c696d-5f64-4656-956a-2e6b69636164,v0.0*
G04 #@! TF.SameCoordinates,Original*
G04 #@! TF.FileFunction,Legend,Bot*
G04 #@! TF.FilePolarity,Positive*
%FSLAX46Y46*%
G04 Gerber Fmt 4.6, Leading zero omitted, Abs format (unit mm)*
G04 Created by KiCad (PCBNEW 6.0.5-a6ca702e91~116~ubuntu22.04.1) date 2022-06-23 14:32:34*
%MOMM*%
%LPD*%
G01*
G04 APERTURE LIST*
%ADD10C,0.150000*%
%ADD11C,0.203200*%
%ADD12C,0.101600*%
%ADD13C,2.082800*%
%ADD14C,1.676400*%
%ADD15R,3.216000X3.216000*%
G04 APERTURE END LIST*
D10*
X177559838Y-87594180D02*
X177893171Y-87117990D01*
X178131266Y-87594180D02*
X178131266Y-86594180D01*
X177750314Y-86594180D01*
X177655076Y-86641800D01*
X177607457Y-86689419D01*
X177559838Y-86784657D01*
X177559838Y-86927514D01*
X177607457Y-87022752D01*
X177655076Y-87070371D01*
X177750314Y-87117990D01*
X178131266Y-87117990D01*
X177274123Y-86594180D02*
X176940790Y-87594180D01*
X176607457Y-86594180D01*
X175845552Y-86927514D02*
X175845552Y-87594180D01*
X176083647Y-86546561D02*
X176321742Y-87260847D01*
X175702695Y-87260847D01*
X149619838Y-87594180D02*
X149953171Y-87117990D01*
X150191266Y-87594180D02*
X150191266Y-86594180D01*
X149810314Y-86594180D01*
X149715076Y-86641800D01*
X149667457Y-86689419D01*
X149619838Y-86784657D01*
X149619838Y-86927514D01*
X149667457Y-87022752D01*
X149715076Y-87070371D01*
X149810314Y-87117990D01*
X150191266Y-87117990D01*
X149334123Y-86594180D02*
X149000790Y-87594180D01*
X148667457Y-86594180D01*
X148429361Y-86594180D02*
X147810314Y-86594180D01*
X148143647Y-86975133D01*
X148000790Y-86975133D01*
X147905552Y-87022752D01*
X147857933Y-87070371D01*
X147810314Y-87165609D01*
X147810314Y-87403704D01*
X147857933Y-87498942D01*
X147905552Y-87546561D01*
X148000790Y-87594180D01*
X148286504Y-87594180D01*
X148381742Y-87546561D01*
X148429361Y-87498942D01*
X93739838Y-87594180D02*
X94073171Y-87117990D01*
X94311266Y-87594180D02*
X94311266Y-86594180D01*
X93930314Y-86594180D01*
X93835076Y-86641800D01*
X93787457Y-86689419D01*
X93739838Y-86784657D01*
X93739838Y-86927514D01*
X93787457Y-87022752D01*
X93835076Y-87070371D01*
X93930314Y-87117990D01*
X94311266Y-87117990D01*
X93454123Y-86594180D02*
X93120790Y-87594180D01*
X92787457Y-86594180D01*
X91930314Y-87594180D02*
X92501742Y-87594180D01*
X92216028Y-87594180D02*
X92216028Y-86594180D01*
X92311266Y-86737038D01*
X92406504Y-86832276D01*
X92501742Y-86879895D01*
X205499838Y-87594180D02*
X205833171Y-87117990D01*
X206071266Y-87594180D02*
X206071266Y-86594180D01*
X205690314Y-86594180D01*
X205595076Y-86641800D01*
X205547457Y-86689419D01*
X205499838Y-86784657D01*
X205499838Y-86927514D01*
X205547457Y-87022752D01*
X205595076Y-87070371D01*
X205690314Y-87117990D01*
X206071266Y-87117990D01*
X205214123Y-86594180D02*
X204880790Y-87594180D01*
X204547457Y-86594180D01*
X203737933Y-86594180D02*
X204214123Y-86594180D01*
X204261742Y-87070371D01*
X204214123Y-87022752D01*
X204118885Y-86975133D01*
X203880790Y-86975133D01*
X203785552Y-87022752D01*
X203737933Y-87070371D01*
X203690314Y-87165609D01*
X203690314Y-87403704D01*
X203737933Y-87498942D01*
X203785552Y-87546561D01*
X203880790Y-87594180D01*
X204118885Y-87594180D01*
X204214123Y-87546561D01*
X204261742Y-87498942D01*
X121679838Y-87594180D02*
X122013171Y-87117990D01*
X122251266Y-87594180D02*
X122251266Y-86594180D01*
X121870314Y-86594180D01*
X121775076Y-86641800D01*
X121727457Y-86689419D01*
X121679838Y-86784657D01*
X121679838Y-86927514D01*
X121727457Y-87022752D01*
X121775076Y-87070371D01*
X121870314Y-87117990D01*
X122251266Y-87117990D01*
X121394123Y-86594180D02*
X121060790Y-87594180D01*
X120727457Y-86594180D01*
X120441742Y-86689419D02*
X120394123Y-86641800D01*
X120298885Y-86594180D01*
X120060790Y-86594180D01*
X119965552Y-86641800D01*
X119917933Y-86689419D01*
X119870314Y-86784657D01*
X119870314Y-86879895D01*
X119917933Y-87022752D01*
X120489361Y-87594180D01*
X119870314Y-87594180D01*
D11*
X172489600Y-88926800D02*
X172489600Y-91126800D01*
X181239600Y-88376800D02*
X173039600Y-88376800D01*
X181239600Y-88376800D02*
X181239600Y-88926800D01*
X173039600Y-99676800D02*
X173039600Y-99126800D01*
X181789600Y-99126800D02*
X181239600Y-99126800D01*
X173039600Y-99676800D02*
X181239600Y-99676800D01*
X181789600Y-99126800D02*
X181789600Y-95926800D01*
X173039600Y-88926800D02*
X173039600Y-88376800D01*
X181239600Y-99126800D02*
X181239600Y-99676800D01*
X173039600Y-99126800D02*
X172489600Y-99126800D01*
X181789600Y-91126800D02*
X181789600Y-88926800D01*
X181239600Y-88926800D02*
X181789600Y-88926800D01*
X172489600Y-88926800D02*
X173039600Y-88926800D01*
X172489600Y-95926800D02*
X172489600Y-99126800D01*
D12*
X175289600Y-89476800D02*
G75*
G03*
X175289600Y-89476800I-650000J0D01*
G01*
X175289600Y-98376800D02*
G75*
G03*
X175289600Y-98376800I-650000J0D01*
G01*
X180289600Y-98376800D02*
G75*
G03*
X180289600Y-98376800I-650000J0D01*
G01*
D11*
X179489700Y-93776800D02*
G75*
G03*
X179489700Y-93776800I-2350100J0D01*
G01*
D12*
X180289600Y-89476800D02*
G75*
G03*
X180289600Y-89476800I-650000J0D01*
G01*
D11*
X153849600Y-99126800D02*
X153299600Y-99126800D01*
X153299600Y-88376800D02*
X153299600Y-88926800D01*
X153849600Y-91126800D02*
X153849600Y-88926800D01*
X153299600Y-99126800D02*
X153299600Y-99676800D01*
X153299600Y-88376800D02*
X145099600Y-88376800D01*
X153299600Y-88926800D02*
X153849600Y-88926800D01*
X145099600Y-99676800D02*
X153299600Y-99676800D01*
X145099600Y-99676800D02*
X145099600Y-99126800D01*
X144549600Y-88926800D02*
X144549600Y-91126800D01*
X144549600Y-95926800D02*
X144549600Y-99126800D01*
X153849600Y-99126800D02*
X153849600Y-95926800D01*
X145099600Y-99126800D02*
X144549600Y-99126800D01*
X145099600Y-88926800D02*
X145099600Y-88376800D01*
X144549600Y-88926800D02*
X145099600Y-88926800D01*
D12*
X147349600Y-98376800D02*
G75*
G03*
X147349600Y-98376800I-650000J0D01*
G01*
D11*
X151549700Y-93776800D02*
G75*
G03*
X151549700Y-93776800I-2350100J0D01*
G01*
D12*
X152349600Y-89476800D02*
G75*
G03*
X152349600Y-89476800I-650000J0D01*
G01*
X152349600Y-98376800D02*
G75*
G03*
X152349600Y-98376800I-650000J0D01*
G01*
X147349600Y-89476800D02*
G75*
G03*
X147349600Y-89476800I-650000J0D01*
G01*
D11*
X97419600Y-88376800D02*
X89219600Y-88376800D01*
X89219600Y-99126800D02*
X88669600Y-99126800D01*
X97969600Y-91126800D02*
X97969600Y-88926800D01*
X89219600Y-99676800D02*
X97419600Y-99676800D01*
X97419600Y-99126800D02*
X97419600Y-99676800D01*
X97969600Y-99126800D02*
X97969600Y-95926800D01*
X97419600Y-88376800D02*
X97419600Y-88926800D01*
X88669600Y-95926800D02*
X88669600Y-99126800D01*
X89219600Y-88926800D02*
X89219600Y-88376800D01*
X89219600Y-99676800D02*
X89219600Y-99126800D01*
X88669600Y-88926800D02*
X88669600Y-91126800D01*
X97419600Y-88926800D02*
X97969600Y-88926800D01*
X88669600Y-88926800D02*
X89219600Y-88926800D01*
X97969600Y-99126800D02*
X97419600Y-99126800D01*
D12*
X91469600Y-98376800D02*
G75*
G03*
X91469600Y-98376800I-650000J0D01*
G01*
D11*
X95669700Y-93776800D02*
G75*
G03*
X95669700Y-93776800I-2350100J0D01*
G01*
D12*
X96469600Y-89476800D02*
G75*
G03*
X96469600Y-89476800I-650000J0D01*
G01*
X96469600Y-98376800D02*
G75*
G03*
X96469600Y-98376800I-650000J0D01*
G01*
X91469600Y-89476800D02*
G75*
G03*
X91469600Y-89476800I-650000J0D01*
G01*
D11*
X200979600Y-99126800D02*
X200429600Y-99126800D01*
X200429600Y-95926800D02*
X200429600Y-99126800D01*
X200979600Y-99676800D02*
X209179600Y-99676800D01*
X209729600Y-99126800D02*
X209729600Y-95926800D01*
X209179600Y-99126800D02*
X209179600Y-99676800D01*
X200979600Y-88926800D02*
X200979600Y-88376800D01*
X209729600Y-99126800D02*
X209179600Y-99126800D01*
X209729600Y-91126800D02*
X209729600Y-88926800D01*
X200979600Y-99676800D02*
X200979600Y-99126800D01*
X200429600Y-88926800D02*
X200979600Y-88926800D01*
X209179600Y-88376800D02*
X209179600Y-88926800D01*
X209179600Y-88926800D02*
X209729600Y-88926800D01*
X209179600Y-88376800D02*
X200979600Y-88376800D01*
X200429600Y-88926800D02*
X200429600Y-91126800D01*
X207429700Y-93776800D02*
G75*
G03*
X207429700Y-93776800I-2350100J0D01*
G01*
D12*
X203229600Y-98376800D02*
G75*
G03*
X203229600Y-98376800I-650000J0D01*
G01*
X208229600Y-89476800D02*
G75*
G03*
X208229600Y-89476800I-650000J0D01*
G01*
X208229600Y-98376800D02*
G75*
G03*
X208229600Y-98376800I-650000J0D01*
G01*
X203229600Y-89476800D02*
G75*
G03*
X203229600Y-89476800I-650000J0D01*
G01*
D11*
X125359600Y-88376800D02*
X125359600Y-88926800D01*
X117159600Y-88926800D02*
X117159600Y-88376800D01*
X125909600Y-99126800D02*
X125909600Y-95926800D01*
X116609600Y-88926800D02*
X117159600Y-88926800D01*
X117159600Y-99676800D02*
X125359600Y-99676800D01*
X116609600Y-95926800D02*
X116609600Y-99126800D01*
X125909600Y-91126800D02*
X125909600Y-88926800D01*
X125359600Y-88376800D02*
X117159600Y-88376800D01*
X125359600Y-88926800D02*
X125909600Y-88926800D01*
X117159600Y-99126800D02*
X116609600Y-99126800D01*
X116609600Y-88926800D02*
X116609600Y-91126800D01*
X125909600Y-99126800D02*
X125359600Y-99126800D01*
X117159600Y-99676800D02*
X117159600Y-99126800D01*
X125359600Y-99126800D02*
X125359600Y-99676800D01*
D12*
X119409600Y-98376800D02*
G75*
G03*
X119409600Y-98376800I-650000J0D01*
G01*
D11*
X123609700Y-93776800D02*
G75*
G03*
X123609700Y-93776800I-2350100J0D01*
G01*
D12*
X124409600Y-98376800D02*
G75*
G03*
X124409600Y-98376800I-650000J0D01*
G01*
X124409600Y-89476800D02*
G75*
G03*
X124409600Y-89476800I-650000J0D01*
G01*
X119409600Y-89476800D02*
G75*
G03*
X119409600Y-89476800I-650000J0D01*
G01*
%LPC*%
D13*
X164058600Y-84378800D03*
X161518600Y-84378800D03*
X158978600Y-84378800D03*
X156438600Y-84378800D03*
X153898600Y-84378800D03*
X151358600Y-84378800D03*
X148818600Y-84378800D03*
X146278600Y-84378800D03*
X143738600Y-84378800D03*
X141198600Y-84378800D03*
X138658600Y-84378800D03*
X136118600Y-84378800D03*
D14*
X179639600Y-100776800D03*
X177139600Y-100776800D03*
X174639600Y-100776800D03*
D15*
X181639600Y-93776800D03*
X172639600Y-93776800D03*
D14*
X151699600Y-100776800D03*
X149199600Y-100776800D03*
X146699600Y-100776800D03*
D15*
X153699600Y-93776800D03*
X144699600Y-93776800D03*
D14*
X95819600Y-100776800D03*
X93319600Y-100776800D03*
X90819600Y-100776800D03*
D15*
X97819600Y-93776800D03*
X88819600Y-93776800D03*
D14*
X207579600Y-100776800D03*
X205079600Y-100776800D03*
X202579600Y-100776800D03*
D15*
X209579600Y-93776800D03*
X200579600Y-93776800D03*
D14*
X123759600Y-100776800D03*
X121259600Y-100776800D03*
X118759600Y-100776800D03*
D15*
X125759600Y-93776800D03*
X116759600Y-93776800D03*
M02*
