G04 #@! TF.GenerationSoftware,KiCad,Pcbnew,6.0.5-a6ca702e91~116~ubuntu22.04.1*
G04 #@! TF.CreationDate,2022-06-23T14:32:34-07:00*
G04 #@! TF.ProjectId,slim_deej,736c696d-5f64-4656-956a-2e6b69636164,v0.0*
G04 #@! TF.SameCoordinates,Original*
G04 #@! TF.FileFunction,Legend,Top*
G04 #@! TF.FilePolarity,Positive*
%FSLAX46Y46*%
G04 Gerber Fmt 4.6, Leading zero omitted, Abs format (unit mm)*
G04 Created by KiCad (PCBNEW 6.0.5-a6ca702e91~116~ubuntu22.04.1) date 2022-06-23 14:32:34*
%MOMM*%
%LPD*%
G01*
G04 APERTURE LIST*
%ADD10C,0.150000*%
%ADD11C,0.127000*%
%ADD12C,2.082800*%
%ADD13C,1.676400*%
%ADD14R,3.216000X3.216000*%
G04 APERTURE END LIST*
D10*
X98623219Y-83967371D02*
X98766076Y-84014990D01*
X98813695Y-84062609D01*
X98861314Y-84157847D01*
X98861314Y-84300704D01*
X98813695Y-84395942D01*
X98766076Y-84443561D01*
X98670838Y-84491180D01*
X98289885Y-84491180D01*
X98289885Y-83491180D01*
X98623219Y-83491180D01*
X98718457Y-83538800D01*
X98766076Y-83586419D01*
X98813695Y-83681657D01*
X98813695Y-83776895D01*
X98766076Y-83872133D01*
X98718457Y-83919752D01*
X98623219Y-83967371D01*
X98289885Y-83967371D01*
X99194647Y-83824514D02*
X99432742Y-84491180D01*
X99670838Y-83824514D02*
X99432742Y-84491180D01*
X99337504Y-84729276D01*
X99289885Y-84776895D01*
X99194647Y-84824514D01*
X100051790Y-84395942D02*
X100099409Y-84443561D01*
X100051790Y-84491180D01*
X100004171Y-84443561D01*
X100051790Y-84395942D01*
X100051790Y-84491180D01*
X100051790Y-83872133D02*
X100099409Y-83919752D01*
X100051790Y-83967371D01*
X100004171Y-83919752D01*
X100051790Y-83872133D01*
X100051790Y-83967371D01*
X101289885Y-84491180D02*
X101289885Y-83491180D01*
X101289885Y-83967371D02*
X101861314Y-83967371D01*
X101861314Y-84491180D02*
X101861314Y-83491180D01*
X102766076Y-84491180D02*
X102766076Y-83967371D01*
X102718457Y-83872133D01*
X102623219Y-83824514D01*
X102432742Y-83824514D01*
X102337504Y-83872133D01*
X102766076Y-84443561D02*
X102670838Y-84491180D01*
X102432742Y-84491180D01*
X102337504Y-84443561D01*
X102289885Y-84348323D01*
X102289885Y-84253085D01*
X102337504Y-84157847D01*
X102432742Y-84110228D01*
X102670838Y-84110228D01*
X102766076Y-84062609D01*
X103242266Y-83824514D02*
X103242266Y-84491180D01*
X103242266Y-83919752D02*
X103289885Y-83872133D01*
X103385123Y-83824514D01*
X103527980Y-83824514D01*
X103623219Y-83872133D01*
X103670838Y-83967371D01*
X103670838Y-84491180D01*
X104908933Y-84491180D02*
X104908933Y-83491180D01*
X105480361Y-84491180D02*
X105051790Y-83919752D01*
X105480361Y-83491180D02*
X104908933Y-84062609D01*
X105908933Y-84491180D02*
X105908933Y-83824514D01*
X105908933Y-83491180D02*
X105861314Y-83538800D01*
X105908933Y-83586419D01*
X105956552Y-83538800D01*
X105908933Y-83491180D01*
X105908933Y-83586419D01*
X106385123Y-84491180D02*
X106385123Y-83824514D01*
X106385123Y-83919752D02*
X106432742Y-83872133D01*
X106527980Y-83824514D01*
X106670838Y-83824514D01*
X106766076Y-83872133D01*
X106813695Y-83967371D01*
X106813695Y-84491180D01*
X106813695Y-83967371D02*
X106861314Y-83872133D01*
X106956552Y-83824514D01*
X107099409Y-83824514D01*
X107194647Y-83872133D01*
X107242266Y-83967371D01*
X107242266Y-84491180D01*
X107766076Y-84443561D02*
X107766076Y-84491180D01*
X107718457Y-84586419D01*
X107670838Y-84634038D01*
X109242266Y-83491180D02*
X109242266Y-84205466D01*
X109194647Y-84348323D01*
X109099409Y-84443561D01*
X108956552Y-84491180D01*
X108861314Y-84491180D01*
X110147028Y-83824514D02*
X110147028Y-84491180D01*
X109718457Y-83824514D02*
X109718457Y-84348323D01*
X109766076Y-84443561D01*
X109861314Y-84491180D01*
X110004171Y-84491180D01*
X110099409Y-84443561D01*
X110147028Y-84395942D01*
X110623219Y-83824514D02*
X110623219Y-84491180D01*
X110623219Y-83919752D02*
X110670838Y-83872133D01*
X110766076Y-83824514D01*
X110908933Y-83824514D01*
X111004171Y-83872133D01*
X111051790Y-83967371D01*
X111051790Y-84491180D01*
X111908933Y-84443561D02*
X111813695Y-84491180D01*
X111623219Y-84491180D01*
X111527980Y-84443561D01*
X111480361Y-84348323D01*
X111480361Y-83967371D01*
X111527980Y-83872133D01*
X111623219Y-83824514D01*
X111813695Y-83824514D01*
X111908933Y-83872133D01*
X111956552Y-83967371D01*
X111956552Y-84062609D01*
X111480361Y-84157847D01*
X113099409Y-83586419D02*
X113147028Y-83538800D01*
X113242266Y-83491180D01*
X113480361Y-83491180D01*
X113575600Y-83538800D01*
X113623219Y-83586419D01*
X113670838Y-83681657D01*
X113670838Y-83776895D01*
X113623219Y-83919752D01*
X113051790Y-84491180D01*
X113670838Y-84491180D01*
X114289885Y-83491180D02*
X114385123Y-83491180D01*
X114480361Y-83538800D01*
X114527980Y-83586419D01*
X114575600Y-83681657D01*
X114623219Y-83872133D01*
X114623219Y-84110228D01*
X114575600Y-84300704D01*
X114527980Y-84395942D01*
X114480361Y-84443561D01*
X114385123Y-84491180D01*
X114289885Y-84491180D01*
X114194647Y-84443561D01*
X114147028Y-84395942D01*
X114099409Y-84300704D01*
X114051790Y-84110228D01*
X114051790Y-83872133D01*
X114099409Y-83681657D01*
X114147028Y-83586419D01*
X114194647Y-83538800D01*
X114289885Y-83491180D01*
X115004171Y-83586419D02*
X115051790Y-83538800D01*
X115147028Y-83491180D01*
X115385123Y-83491180D01*
X115480361Y-83538800D01*
X115527980Y-83586419D01*
X115575600Y-83681657D01*
X115575600Y-83776895D01*
X115527980Y-83919752D01*
X114956552Y-84491180D01*
X115575600Y-84491180D01*
X115956552Y-83586419D02*
X116004171Y-83538800D01*
X116099409Y-83491180D01*
X116337504Y-83491180D01*
X116432742Y-83538800D01*
X116480361Y-83586419D01*
X116527980Y-83681657D01*
X116527980Y-83776895D01*
X116480361Y-83919752D01*
X115908933Y-84491180D01*
X116527980Y-84491180D01*
X117004171Y-84443561D02*
X117004171Y-84491180D01*
X116956552Y-84586419D01*
X116908933Y-84634038D01*
X118099409Y-83824514D02*
X118337504Y-84491180D01*
X118575600Y-83824514D01*
X119147028Y-83491180D02*
X119242266Y-83491180D01*
X119337504Y-83538800D01*
X119385123Y-83586419D01*
X119432742Y-83681657D01*
X119480361Y-83872133D01*
X119480361Y-84110228D01*
X119432742Y-84300704D01*
X119385123Y-84395942D01*
X119337504Y-84443561D01*
X119242266Y-84491180D01*
X119147028Y-84491180D01*
X119051790Y-84443561D01*
X119004171Y-84395942D01*
X118956552Y-84300704D01*
X118908933Y-84110228D01*
X118908933Y-83872133D01*
X118956552Y-83681657D01*
X119004171Y-83586419D01*
X119051790Y-83538800D01*
X119147028Y-83491180D01*
X119908933Y-84395942D02*
X119956552Y-84443561D01*
X119908933Y-84491180D01*
X119861314Y-84443561D01*
X119908933Y-84395942D01*
X119908933Y-84491180D01*
X120575600Y-83491180D02*
X120670838Y-83491180D01*
X120766076Y-83538800D01*
X120813695Y-83586419D01*
X120861314Y-83681657D01*
X120908933Y-83872133D01*
X120908933Y-84110228D01*
X120861314Y-84300704D01*
X120813695Y-84395942D01*
X120766076Y-84443561D01*
X120670838Y-84491180D01*
X120575600Y-84491180D01*
X120480361Y-84443561D01*
X120432742Y-84395942D01*
X120385123Y-84300704D01*
X120337504Y-84110228D01*
X120337504Y-83872133D01*
X120385123Y-83681657D01*
X120432742Y-83586419D01*
X120480361Y-83538800D01*
X120575600Y-83491180D01*
X95575600Y-85434514D02*
X95575600Y-86244038D01*
X95527980Y-86339276D01*
X95480361Y-86386895D01*
X95385123Y-86434514D01*
X95242266Y-86434514D01*
X95147028Y-86386895D01*
X95575600Y-86053561D02*
X95480361Y-86101180D01*
X95289885Y-86101180D01*
X95194647Y-86053561D01*
X95147028Y-86005942D01*
X95099409Y-85910704D01*
X95099409Y-85624990D01*
X95147028Y-85529752D01*
X95194647Y-85482133D01*
X95289885Y-85434514D01*
X95480361Y-85434514D01*
X95575600Y-85482133D01*
X96051790Y-86101180D02*
X96051790Y-85434514D01*
X96051790Y-85101180D02*
X96004171Y-85148800D01*
X96051790Y-85196419D01*
X96099409Y-85148800D01*
X96051790Y-85101180D01*
X96051790Y-85196419D01*
X96385123Y-85434514D02*
X96766076Y-85434514D01*
X96527980Y-85101180D02*
X96527980Y-85958323D01*
X96575600Y-86053561D01*
X96670838Y-86101180D01*
X96766076Y-86101180D01*
X97099409Y-86101180D02*
X97099409Y-85101180D01*
X97527980Y-86101180D02*
X97527980Y-85577371D01*
X97480361Y-85482133D01*
X97385123Y-85434514D01*
X97242266Y-85434514D01*
X97147028Y-85482133D01*
X97099409Y-85529752D01*
X98432742Y-85434514D02*
X98432742Y-86101180D01*
X98004171Y-85434514D02*
X98004171Y-85958323D01*
X98051790Y-86053561D01*
X98147028Y-86101180D01*
X98289885Y-86101180D01*
X98385123Y-86053561D01*
X98432742Y-86005942D01*
X98908933Y-86101180D02*
X98908933Y-85101180D01*
X98908933Y-85482133D02*
X99004171Y-85434514D01*
X99194647Y-85434514D01*
X99289885Y-85482133D01*
X99337504Y-85529752D01*
X99385123Y-85624990D01*
X99385123Y-85910704D01*
X99337504Y-86005942D01*
X99289885Y-86053561D01*
X99194647Y-86101180D01*
X99004171Y-86101180D01*
X98908933Y-86053561D01*
X99813695Y-86005942D02*
X99861314Y-86053561D01*
X99813695Y-86101180D01*
X99766076Y-86053561D01*
X99813695Y-86005942D01*
X99813695Y-86101180D01*
X100718457Y-86053561D02*
X100623219Y-86101180D01*
X100432742Y-86101180D01*
X100337504Y-86053561D01*
X100289885Y-86005942D01*
X100242266Y-85910704D01*
X100242266Y-85624990D01*
X100289885Y-85529752D01*
X100337504Y-85482133D01*
X100432742Y-85434514D01*
X100623219Y-85434514D01*
X100718457Y-85482133D01*
X101289885Y-86101180D02*
X101194647Y-86053561D01*
X101147028Y-86005942D01*
X101099409Y-85910704D01*
X101099409Y-85624990D01*
X101147028Y-85529752D01*
X101194647Y-85482133D01*
X101289885Y-85434514D01*
X101432742Y-85434514D01*
X101527980Y-85482133D01*
X101575600Y-85529752D01*
X101623219Y-85624990D01*
X101623219Y-85910704D01*
X101575600Y-86005942D01*
X101527980Y-86053561D01*
X101432742Y-86101180D01*
X101289885Y-86101180D01*
X102051790Y-86101180D02*
X102051790Y-85434514D01*
X102051790Y-85529752D02*
X102099409Y-85482133D01*
X102194647Y-85434514D01*
X102337504Y-85434514D01*
X102432742Y-85482133D01*
X102480361Y-85577371D01*
X102480361Y-86101180D01*
X102480361Y-85577371D02*
X102527980Y-85482133D01*
X102623219Y-85434514D01*
X102766076Y-85434514D01*
X102861314Y-85482133D01*
X102908933Y-85577371D01*
X102908933Y-86101180D01*
X104099409Y-85053561D02*
X103242266Y-86339276D01*
X104432742Y-86101180D02*
X104432742Y-85101180D01*
X104861314Y-86101180D02*
X104861314Y-85577371D01*
X104813695Y-85482133D01*
X104718457Y-85434514D01*
X104575600Y-85434514D01*
X104480361Y-85482133D01*
X104432742Y-85529752D01*
X105766076Y-86101180D02*
X105766076Y-85577371D01*
X105718457Y-85482133D01*
X105623219Y-85434514D01*
X105432742Y-85434514D01*
X105337504Y-85482133D01*
X105766076Y-86053561D02*
X105670838Y-86101180D01*
X105432742Y-86101180D01*
X105337504Y-86053561D01*
X105289885Y-85958323D01*
X105289885Y-85863085D01*
X105337504Y-85767847D01*
X105432742Y-85720228D01*
X105670838Y-85720228D01*
X105766076Y-85672609D01*
X106242266Y-85434514D02*
X106242266Y-86101180D01*
X106242266Y-85529752D02*
X106289885Y-85482133D01*
X106385123Y-85434514D01*
X106527980Y-85434514D01*
X106623219Y-85482133D01*
X106670838Y-85577371D01*
X106670838Y-86101180D01*
X107147028Y-86101180D02*
X107147028Y-85101180D01*
X107575600Y-86101180D02*
X107575600Y-85577371D01*
X107527980Y-85482133D01*
X107432742Y-85434514D01*
X107289885Y-85434514D01*
X107194647Y-85482133D01*
X107147028Y-85529752D01*
X108480361Y-86101180D02*
X108480361Y-85577371D01*
X108432742Y-85482133D01*
X108337504Y-85434514D01*
X108147028Y-85434514D01*
X108051790Y-85482133D01*
X108480361Y-86053561D02*
X108385123Y-86101180D01*
X108147028Y-86101180D01*
X108051790Y-86053561D01*
X108004171Y-85958323D01*
X108004171Y-85863085D01*
X108051790Y-85767847D01*
X108147028Y-85720228D01*
X108385123Y-85720228D01*
X108480361Y-85672609D01*
X108956552Y-85434514D02*
X108956552Y-86101180D01*
X108956552Y-85529752D02*
X109004171Y-85482133D01*
X109099409Y-85434514D01*
X109242266Y-85434514D01*
X109337504Y-85482133D01*
X109385123Y-85577371D01*
X109385123Y-86101180D01*
X109861314Y-86101180D02*
X109861314Y-85101180D01*
X110289885Y-86101180D02*
X110289885Y-85577371D01*
X110242266Y-85482133D01*
X110147028Y-85434514D01*
X110004171Y-85434514D01*
X109908933Y-85482133D01*
X109861314Y-85529752D01*
X111194647Y-86101180D02*
X111194647Y-85577371D01*
X111147028Y-85482133D01*
X111051790Y-85434514D01*
X110861314Y-85434514D01*
X110766076Y-85482133D01*
X111194647Y-86053561D02*
X111099409Y-86101180D01*
X110861314Y-86101180D01*
X110766076Y-86053561D01*
X110718457Y-85958323D01*
X110718457Y-85863085D01*
X110766076Y-85767847D01*
X110861314Y-85720228D01*
X111099409Y-85720228D01*
X111194647Y-85672609D01*
X111670838Y-85434514D02*
X111670838Y-86101180D01*
X111670838Y-85529752D02*
X111718457Y-85482133D01*
X111813695Y-85434514D01*
X111956552Y-85434514D01*
X112051790Y-85482133D01*
X112099409Y-85577371D01*
X112099409Y-86101180D01*
X112575600Y-85720228D02*
X113337504Y-85720228D01*
X113813695Y-86101180D02*
X113813695Y-85101180D01*
X113908933Y-85720228D02*
X114194647Y-86101180D01*
X114194647Y-85434514D02*
X113813695Y-85815466D01*
X114623219Y-86101180D02*
X114623219Y-85434514D01*
X114623219Y-85101180D02*
X114575600Y-85148800D01*
X114623219Y-85196419D01*
X114670838Y-85148800D01*
X114623219Y-85101180D01*
X114623219Y-85196419D01*
X115099409Y-86101180D02*
X115099409Y-85434514D01*
X115099409Y-85529752D02*
X115147028Y-85482133D01*
X115242266Y-85434514D01*
X115385123Y-85434514D01*
X115480361Y-85482133D01*
X115527980Y-85577371D01*
X115527980Y-86101180D01*
X115527980Y-85577371D02*
X115575600Y-85482133D01*
X115670838Y-85434514D01*
X115813695Y-85434514D01*
X115908933Y-85482133D01*
X115956552Y-85577371D01*
X115956552Y-86101180D01*
X117147028Y-85053561D02*
X116289885Y-86339276D01*
X117432742Y-86053561D02*
X117527980Y-86101180D01*
X117718457Y-86101180D01*
X117813695Y-86053561D01*
X117861314Y-85958323D01*
X117861314Y-85910704D01*
X117813695Y-85815466D01*
X117718457Y-85767847D01*
X117575600Y-85767847D01*
X117480361Y-85720228D01*
X117432742Y-85624990D01*
X117432742Y-85577371D01*
X117480361Y-85482133D01*
X117575600Y-85434514D01*
X117718457Y-85434514D01*
X117813695Y-85482133D01*
X118432742Y-86101180D02*
X118337504Y-86053561D01*
X118289885Y-85958323D01*
X118289885Y-85101180D01*
X118813695Y-86101180D02*
X118813695Y-85434514D01*
X118813695Y-85101180D02*
X118766076Y-85148800D01*
X118813695Y-85196419D01*
X118861314Y-85148800D01*
X118813695Y-85101180D01*
X118813695Y-85196419D01*
X119289885Y-86101180D02*
X119289885Y-85434514D01*
X119289885Y-85529752D02*
X119337504Y-85482133D01*
X119432742Y-85434514D01*
X119575600Y-85434514D01*
X119670838Y-85482133D01*
X119718457Y-85577371D01*
X119718457Y-86101180D01*
X119718457Y-85577371D02*
X119766076Y-85482133D01*
X119861314Y-85434514D01*
X120004171Y-85434514D01*
X120099409Y-85482133D01*
X120147028Y-85577371D01*
X120147028Y-86101180D01*
X120385123Y-86196419D02*
X121147028Y-86196419D01*
X121813695Y-86101180D02*
X121813695Y-85101180D01*
X121813695Y-86053561D02*
X121718457Y-86101180D01*
X121527980Y-86101180D01*
X121432742Y-86053561D01*
X121385123Y-86005942D01*
X121337504Y-85910704D01*
X121337504Y-85624990D01*
X121385123Y-85529752D01*
X121432742Y-85482133D01*
X121527980Y-85434514D01*
X121718457Y-85434514D01*
X121813695Y-85482133D01*
X122670838Y-86053561D02*
X122575600Y-86101180D01*
X122385123Y-86101180D01*
X122289885Y-86053561D01*
X122242266Y-85958323D01*
X122242266Y-85577371D01*
X122289885Y-85482133D01*
X122385123Y-85434514D01*
X122575600Y-85434514D01*
X122670838Y-85482133D01*
X122718457Y-85577371D01*
X122718457Y-85672609D01*
X122242266Y-85767847D01*
X123527980Y-86053561D02*
X123432742Y-86101180D01*
X123242266Y-86101180D01*
X123147028Y-86053561D01*
X123099409Y-85958323D01*
X123099409Y-85577371D01*
X123147028Y-85482133D01*
X123242266Y-85434514D01*
X123432742Y-85434514D01*
X123527980Y-85482133D01*
X123575600Y-85577371D01*
X123575600Y-85672609D01*
X123099409Y-85767847D01*
X124004171Y-85434514D02*
X124004171Y-86291657D01*
X123956552Y-86386895D01*
X123861314Y-86434514D01*
X123813695Y-86434514D01*
X124004171Y-85101180D02*
X123956552Y-85148800D01*
X124004171Y-85196419D01*
X124051790Y-85148800D01*
X124004171Y-85101180D01*
X124004171Y-85196419D01*
X101004171Y-87711180D02*
X101004171Y-87044514D01*
X101004171Y-87234990D02*
X101051790Y-87139752D01*
X101099409Y-87092133D01*
X101194647Y-87044514D01*
X101289885Y-87044514D01*
X102004171Y-87663561D02*
X101908933Y-87711180D01*
X101718457Y-87711180D01*
X101623219Y-87663561D01*
X101575600Y-87568323D01*
X101575600Y-87187371D01*
X101623219Y-87092133D01*
X101718457Y-87044514D01*
X101908933Y-87044514D01*
X102004171Y-87092133D01*
X102051790Y-87187371D01*
X102051790Y-87282609D01*
X101575600Y-87377847D01*
X102908933Y-87711180D02*
X102908933Y-86711180D01*
X102908933Y-87663561D02*
X102813695Y-87711180D01*
X102623219Y-87711180D01*
X102527980Y-87663561D01*
X102480361Y-87615942D01*
X102432742Y-87520704D01*
X102432742Y-87234990D01*
X102480361Y-87139752D01*
X102527980Y-87092133D01*
X102623219Y-87044514D01*
X102813695Y-87044514D01*
X102908933Y-87092133D01*
X103813695Y-87711180D02*
X103813695Y-86711180D01*
X103813695Y-87663561D02*
X103718457Y-87711180D01*
X103527980Y-87711180D01*
X103432742Y-87663561D01*
X103385123Y-87615942D01*
X103337504Y-87520704D01*
X103337504Y-87234990D01*
X103385123Y-87139752D01*
X103432742Y-87092133D01*
X103527980Y-87044514D01*
X103718457Y-87044514D01*
X103813695Y-87092133D01*
X104289885Y-87711180D02*
X104289885Y-87044514D01*
X104289885Y-86711180D02*
X104242266Y-86758800D01*
X104289885Y-86806419D01*
X104337504Y-86758800D01*
X104289885Y-86711180D01*
X104289885Y-86806419D01*
X104623219Y-87044514D02*
X105004171Y-87044514D01*
X104766076Y-86711180D02*
X104766076Y-87568323D01*
X104813695Y-87663561D01*
X104908933Y-87711180D01*
X105004171Y-87711180D01*
X105337504Y-87615942D02*
X105385123Y-87663561D01*
X105337504Y-87711180D01*
X105289885Y-87663561D01*
X105337504Y-87615942D01*
X105337504Y-87711180D01*
X106242266Y-87663561D02*
X106147028Y-87711180D01*
X105956552Y-87711180D01*
X105861314Y-87663561D01*
X105813695Y-87615942D01*
X105766076Y-87520704D01*
X105766076Y-87234990D01*
X105813695Y-87139752D01*
X105861314Y-87092133D01*
X105956552Y-87044514D01*
X106147028Y-87044514D01*
X106242266Y-87092133D01*
X106813695Y-87711180D02*
X106718457Y-87663561D01*
X106670838Y-87615942D01*
X106623219Y-87520704D01*
X106623219Y-87234990D01*
X106670838Y-87139752D01*
X106718457Y-87092133D01*
X106813695Y-87044514D01*
X106956552Y-87044514D01*
X107051790Y-87092133D01*
X107099409Y-87139752D01*
X107147028Y-87234990D01*
X107147028Y-87520704D01*
X107099409Y-87615942D01*
X107051790Y-87663561D01*
X106956552Y-87711180D01*
X106813695Y-87711180D01*
X107575600Y-87711180D02*
X107575600Y-87044514D01*
X107575600Y-87139752D02*
X107623219Y-87092133D01*
X107718457Y-87044514D01*
X107861314Y-87044514D01*
X107956552Y-87092133D01*
X108004171Y-87187371D01*
X108004171Y-87711180D01*
X108004171Y-87187371D02*
X108051790Y-87092133D01*
X108147028Y-87044514D01*
X108289885Y-87044514D01*
X108385123Y-87092133D01*
X108432742Y-87187371D01*
X108432742Y-87711180D01*
X109623219Y-86663561D02*
X108766076Y-87949276D01*
X110385123Y-87044514D02*
X110385123Y-87711180D01*
X109956552Y-87044514D02*
X109956552Y-87568323D01*
X110004171Y-87663561D01*
X110099409Y-87711180D01*
X110242266Y-87711180D01*
X110337504Y-87663561D01*
X110385123Y-87615942D01*
X111575600Y-86663561D02*
X110718457Y-87949276D01*
X111908933Y-87711180D02*
X111908933Y-86711180D01*
X112337504Y-87711180D02*
X112337504Y-87187371D01*
X112289885Y-87092133D01*
X112194647Y-87044514D01*
X112051790Y-87044514D01*
X111956552Y-87092133D01*
X111908933Y-87139752D01*
X113242266Y-87711180D02*
X113242266Y-87187371D01*
X113194647Y-87092133D01*
X113099409Y-87044514D01*
X112908933Y-87044514D01*
X112813695Y-87092133D01*
X113242266Y-87663561D02*
X113147028Y-87711180D01*
X112908933Y-87711180D01*
X112813695Y-87663561D01*
X112766076Y-87568323D01*
X112766076Y-87473085D01*
X112813695Y-87377847D01*
X112908933Y-87330228D01*
X113147028Y-87330228D01*
X113242266Y-87282609D01*
X113718457Y-87044514D02*
X113718457Y-87711180D01*
X113718457Y-87139752D02*
X113766076Y-87092133D01*
X113861314Y-87044514D01*
X114004171Y-87044514D01*
X114099409Y-87092133D01*
X114147028Y-87187371D01*
X114147028Y-87711180D01*
X114623219Y-87711180D02*
X114623219Y-86711180D01*
X114718457Y-87330228D02*
X115004171Y-87711180D01*
X115004171Y-87044514D02*
X114623219Y-87425466D01*
X115337504Y-87044514D02*
X115575600Y-87711180D01*
X115813695Y-87044514D02*
X115575600Y-87711180D01*
X115480361Y-87949276D01*
X115432742Y-87996895D01*
X115337504Y-88044514D01*
X116194647Y-87711180D02*
X116194647Y-86711180D01*
X116194647Y-87092133D02*
X116289885Y-87044514D01*
X116480361Y-87044514D01*
X116575600Y-87092133D01*
X116623219Y-87139752D01*
X116670838Y-87234990D01*
X116670838Y-87520704D01*
X116623219Y-87615942D01*
X116575600Y-87663561D01*
X116480361Y-87711180D01*
X116289885Y-87711180D01*
X116194647Y-87663561D01*
X117099409Y-87711180D02*
X117099409Y-87044514D01*
X117099409Y-87234990D02*
X117147028Y-87139752D01*
X117194647Y-87092133D01*
X117289885Y-87044514D01*
X117385123Y-87044514D01*
X118147028Y-87711180D02*
X118147028Y-86711180D01*
X118147028Y-87663561D02*
X118051790Y-87711180D01*
X117861314Y-87711180D01*
X117766076Y-87663561D01*
X117718457Y-87615942D01*
X117670838Y-87520704D01*
X117670838Y-87234990D01*
X117718457Y-87139752D01*
X117766076Y-87092133D01*
X117861314Y-87044514D01*
X118051790Y-87044514D01*
X118147028Y-87092133D01*
D11*
X133535057Y-92245542D02*
X133564085Y-92158457D01*
X133593114Y-92129428D01*
X133651171Y-92100400D01*
X133738257Y-92100400D01*
X133796314Y-92129428D01*
X133825342Y-92158457D01*
X133854371Y-92216514D01*
X133854371Y-92448742D01*
X133244771Y-92448742D01*
X133244771Y-92245542D01*
X133273800Y-92187485D01*
X133302828Y-92158457D01*
X133360885Y-92129428D01*
X133418942Y-92129428D01*
X133477000Y-92158457D01*
X133506028Y-92187485D01*
X133535057Y-92245542D01*
X133535057Y-92448742D01*
X133854371Y-91519828D02*
X133854371Y-91868171D01*
X133854371Y-91694000D02*
X133244771Y-91694000D01*
X133331857Y-91752057D01*
X133389914Y-91810114D01*
X133418942Y-91868171D01*
%LPC*%
D12*
X164058600Y-84378800D03*
X161518600Y-84378800D03*
X158978600Y-84378800D03*
X156438600Y-84378800D03*
X153898600Y-84378800D03*
X151358600Y-84378800D03*
X148818600Y-84378800D03*
X146278600Y-84378800D03*
X143738600Y-84378800D03*
X141198600Y-84378800D03*
X138658600Y-84378800D03*
X136118600Y-84378800D03*
D13*
X179639600Y-100776800D03*
X177139600Y-100776800D03*
X174639600Y-100776800D03*
D14*
X181639600Y-93776800D03*
X172639600Y-93776800D03*
D13*
X151699600Y-100776800D03*
X149199600Y-100776800D03*
X146699600Y-100776800D03*
D14*
X153699600Y-93776800D03*
X144699600Y-93776800D03*
D13*
X95819600Y-100776800D03*
X93319600Y-100776800D03*
X90819600Y-100776800D03*
D14*
X97819600Y-93776800D03*
X88819600Y-93776800D03*
D13*
X207579600Y-100776800D03*
X205079600Y-100776800D03*
X202579600Y-100776800D03*
D14*
X209579600Y-93776800D03*
X200579600Y-93776800D03*
D13*
X123759600Y-100776800D03*
X121259600Y-100776800D03*
X118759600Y-100776800D03*
D14*
X125759600Y-93776800D03*
X116759600Y-93776800D03*
M02*
