G04 #@! TF.GenerationSoftware,KiCad,Pcbnew,6.0.5-a6ca702e91~116~ubuntu22.04.1*
G04 #@! TF.CreationDate,2022-06-23T14:32:34-07:00*
G04 #@! TF.ProjectId,slim_deej,736c696d-5f64-4656-956a-2e6b69636164,v0.0*
G04 #@! TF.SameCoordinates,Original*
G04 #@! TF.FileFunction,Copper,L2,Bot*
G04 #@! TF.FilePolarity,Positive*
%FSLAX46Y46*%
G04 Gerber Fmt 4.6, Leading zero omitted, Abs format (unit mm)*
G04 Created by KiCad (PCBNEW 6.0.5-a6ca702e91~116~ubuntu22.04.1) date 2022-06-23 14:32:34*
%MOMM*%
%LPD*%
G01*
G04 APERTURE LIST*
G04 #@! TA.AperFunction,ComponentPad*
%ADD10C,1.879600*%
G04 #@! TD*
G04 #@! TA.AperFunction,ComponentPad*
%ADD11C,1.676400*%
G04 #@! TD*
G04 #@! TA.AperFunction,ComponentPad*
%ADD12R,3.216000X3.216000*%
G04 #@! TD*
G04 #@! TA.AperFunction,Conductor*
%ADD13C,0.254000*%
G04 #@! TD*
G04 APERTURE END LIST*
D10*
X164058600Y-84378800D03*
X161518600Y-84378800D03*
X158978600Y-84378800D03*
X156438600Y-84378800D03*
X153898600Y-84378800D03*
X151358600Y-84378800D03*
X148818600Y-84378800D03*
X146278600Y-84378800D03*
X143738600Y-84378800D03*
X141198600Y-84378800D03*
X138658600Y-84378800D03*
X136118600Y-84378800D03*
D11*
X179639600Y-100776800D03*
X177139600Y-100776800D03*
X174639600Y-100776800D03*
D12*
X181639600Y-93776800D03*
X172639600Y-93776800D03*
D11*
X151699600Y-100776800D03*
X149199600Y-100776800D03*
X146699600Y-100776800D03*
D12*
X153699600Y-93776800D03*
X144699600Y-93776800D03*
D11*
X95819600Y-100776800D03*
X93319600Y-100776800D03*
X90819600Y-100776800D03*
D12*
X97819600Y-93776800D03*
X88819600Y-93776800D03*
D11*
X207579600Y-100776800D03*
X205079600Y-100776800D03*
X202579600Y-100776800D03*
D12*
X209579600Y-93776800D03*
X200579600Y-93776800D03*
D11*
X123759600Y-100776800D03*
X121259600Y-100776800D03*
X118759600Y-100776800D03*
D12*
X125759600Y-93776800D03*
X116759600Y-93776800D03*
D13*
X121513600Y-90728800D02*
X129641600Y-82600800D01*
X144500600Y-82600800D02*
X146278600Y-84378800D01*
X93319600Y-100776800D02*
X93319600Y-99110800D01*
X96113600Y-96316800D02*
X121259600Y-96316800D01*
X121259600Y-96316800D02*
X121513600Y-96062800D01*
X121513600Y-96062800D02*
X121513600Y-90728800D01*
X93319600Y-99110800D02*
X96113600Y-96316800D01*
X129641600Y-82600800D02*
X144500600Y-82600800D01*
X141071600Y-102920800D02*
X151739600Y-102920800D01*
X151699600Y-102880800D02*
X151739600Y-102920800D01*
X138643600Y-100776800D02*
X138785600Y-100634800D01*
X97963600Y-102920800D02*
X95819600Y-100776800D01*
X123759600Y-100776800D02*
X138643600Y-100776800D01*
X151739600Y-102920800D02*
X179679600Y-102920800D01*
X141071600Y-102920800D02*
X97963600Y-102920800D01*
X151699600Y-100776800D02*
X151699600Y-102880800D01*
X179639600Y-102880800D02*
X179679600Y-102920800D01*
X179679600Y-102920800D02*
X205435600Y-102920800D01*
X138658600Y-100507800D02*
X138785600Y-100634800D01*
X138785600Y-100634800D02*
X141071600Y-102920800D01*
X179639600Y-100776800D02*
X179639600Y-102880800D01*
X205435600Y-102920800D02*
X207579600Y-100776800D01*
X138658600Y-84378800D02*
X138658600Y-100507800D01*
G04 #@! TA.AperFunction,Conductor*
G36*
X210745228Y-81580739D02*
G01*
X210760728Y-81583561D01*
X210769659Y-81582625D01*
X210776037Y-81581957D01*
X210801373Y-81581864D01*
X210967393Y-81598022D01*
X210985116Y-81601035D01*
X211039126Y-81614241D01*
X211171819Y-81646688D01*
X211188917Y-81652187D01*
X211367228Y-81723949D01*
X211383383Y-81731834D01*
X211549647Y-81828230D01*
X211564518Y-81838334D01*
X211715380Y-81957420D01*
X211728660Y-81969537D01*
X211861034Y-82108875D01*
X211872455Y-82122759D01*
X211983649Y-82279515D01*
X211992977Y-82294882D01*
X212080738Y-82465880D01*
X212087785Y-82482419D01*
X212133594Y-82615561D01*
X212150313Y-82664156D01*
X212154930Y-82681512D01*
X212190962Y-82870325D01*
X212193062Y-82888168D01*
X212200360Y-83047524D01*
X212199093Y-83066361D01*
X212198807Y-83073923D01*
X212197198Y-83082758D01*
X212201366Y-83122541D01*
X212202052Y-83135690D01*
X212200266Y-91930503D01*
X212197713Y-104499806D01*
X212195676Y-104522345D01*
X212192839Y-104537928D01*
X212193775Y-104546859D01*
X212194443Y-104553237D01*
X212194536Y-104578573D01*
X212178378Y-104744593D01*
X212175365Y-104762316D01*
X212129714Y-104949013D01*
X212124213Y-104966117D01*
X212052451Y-105144428D01*
X212044566Y-105160583D01*
X211948170Y-105326847D01*
X211938066Y-105341718D01*
X211818980Y-105492580D01*
X211806863Y-105505860D01*
X211667525Y-105638234D01*
X211653641Y-105649655D01*
X211496885Y-105760849D01*
X211481518Y-105770177D01*
X211310520Y-105857938D01*
X211293980Y-105864985D01*
X211112239Y-105927514D01*
X211094888Y-105932130D01*
X210906075Y-105968162D01*
X210888232Y-105970262D01*
X210728876Y-105977560D01*
X210710039Y-105976293D01*
X210702477Y-105976007D01*
X210693642Y-105974398D01*
X210653801Y-105978572D01*
X210640677Y-105979258D01*
X165552919Y-105977661D01*
X87676561Y-105974903D01*
X87654000Y-105972866D01*
X87647306Y-105971647D01*
X87647304Y-105971647D01*
X87638472Y-105970039D01*
X87627332Y-105971207D01*
X87623166Y-105971643D01*
X87597828Y-105971736D01*
X87431808Y-105955578D01*
X87414085Y-105952565D01*
X87360075Y-105939359D01*
X87227382Y-105906912D01*
X87210280Y-105901411D01*
X87031970Y-105829650D01*
X87015825Y-105821771D01*
X86849550Y-105725368D01*
X86834681Y-105715265D01*
X86683820Y-105596181D01*
X86670539Y-105584063D01*
X86538166Y-105444726D01*
X86526745Y-105430842D01*
X86415551Y-105274085D01*
X86406223Y-105258718D01*
X86318462Y-105087720D01*
X86311415Y-105071181D01*
X86248887Y-104889444D01*
X86244270Y-104872088D01*
X86208238Y-104683275D01*
X86206138Y-104665433D01*
X86198840Y-104506083D01*
X86200109Y-104487215D01*
X86200394Y-104479676D01*
X86202003Y-104470842D01*
X86197845Y-104431150D01*
X86197159Y-104417965D01*
X86197168Y-104402010D01*
X86199020Y-100776800D01*
X89467756Y-100776800D01*
X89488294Y-101011545D01*
X89489718Y-101016859D01*
X89489718Y-101016860D01*
X89525077Y-101148821D01*
X89549282Y-101239158D01*
X89551604Y-101244138D01*
X89551605Y-101244140D01*
X89640736Y-101435280D01*
X89648869Y-101452722D01*
X89784027Y-101645749D01*
X89950651Y-101812373D01*
X90143678Y-101947531D01*
X90148656Y-101949852D01*
X90148659Y-101949854D01*
X90351248Y-102044323D01*
X90357242Y-102047118D01*
X90362550Y-102048540D01*
X90362552Y-102048541D01*
X90579540Y-102106682D01*
X90584855Y-102108106D01*
X90819600Y-102128644D01*
X91054345Y-102108106D01*
X91059660Y-102106682D01*
X91276648Y-102048541D01*
X91276650Y-102048540D01*
X91281958Y-102047118D01*
X91287952Y-102044323D01*
X91490541Y-101949854D01*
X91490544Y-101949852D01*
X91495522Y-101947531D01*
X91688549Y-101812373D01*
X91855173Y-101645749D01*
X91966387Y-101486918D01*
X92021844Y-101442589D01*
X92092463Y-101435280D01*
X92155824Y-101467310D01*
X92172813Y-101486918D01*
X92284027Y-101645749D01*
X92450651Y-101812373D01*
X92643678Y-101947531D01*
X92648656Y-101949852D01*
X92648659Y-101949854D01*
X92851248Y-102044323D01*
X92857242Y-102047118D01*
X92862550Y-102048540D01*
X92862552Y-102048541D01*
X93079540Y-102106682D01*
X93084855Y-102108106D01*
X93319600Y-102128644D01*
X93554345Y-102108106D01*
X93559660Y-102106682D01*
X93776648Y-102048541D01*
X93776650Y-102048540D01*
X93781958Y-102047118D01*
X93787952Y-102044323D01*
X93990541Y-101949854D01*
X93990544Y-101949852D01*
X93995522Y-101947531D01*
X94077271Y-101890290D01*
X95070664Y-101890290D01*
X95079958Y-101902304D01*
X95139421Y-101943940D01*
X95148916Y-101949423D01*
X95352432Y-102044323D01*
X95362724Y-102048069D01*
X95579627Y-102106188D01*
X95590422Y-102108091D01*
X95814125Y-102127663D01*
X95825075Y-102127663D01*
X96048778Y-102108091D01*
X96059573Y-102106188D01*
X96276476Y-102048069D01*
X96286768Y-102044323D01*
X96490284Y-101949423D01*
X96499779Y-101943940D01*
X96560077Y-101901719D01*
X96568452Y-101891242D01*
X96561385Y-101877796D01*
X95832411Y-101148821D01*
X95818468Y-101141208D01*
X95816634Y-101141339D01*
X95810020Y-101145590D01*
X95077091Y-101878520D01*
X95070664Y-101890290D01*
X94077271Y-101890290D01*
X94188549Y-101812373D01*
X94355173Y-101645749D01*
X94466692Y-101486482D01*
X94522149Y-101442154D01*
X94592768Y-101434845D01*
X94656129Y-101466875D01*
X94673118Y-101486482D01*
X94694681Y-101517277D01*
X94705158Y-101525652D01*
X94718604Y-101518585D01*
X95447579Y-100789611D01*
X95453956Y-100777932D01*
X96184008Y-100777932D01*
X96184139Y-100779766D01*
X96188390Y-100786380D01*
X96921320Y-101519309D01*
X96933090Y-101525736D01*
X96945104Y-101516442D01*
X96986740Y-101456979D01*
X96992223Y-101447484D01*
X97087123Y-101243968D01*
X97090869Y-101233676D01*
X97148988Y-101016773D01*
X97150891Y-101005978D01*
X97170463Y-100782275D01*
X97170463Y-100776800D01*
X117407756Y-100776800D01*
X117428294Y-101011545D01*
X117429718Y-101016859D01*
X117429718Y-101016860D01*
X117465077Y-101148821D01*
X117489282Y-101239158D01*
X117491604Y-101244138D01*
X117491605Y-101244140D01*
X117580736Y-101435280D01*
X117588869Y-101452722D01*
X117724027Y-101645749D01*
X117890651Y-101812373D01*
X118083678Y-101947531D01*
X118088656Y-101949852D01*
X118088659Y-101949854D01*
X118291248Y-102044323D01*
X118297242Y-102047118D01*
X118302550Y-102048540D01*
X118302552Y-102048541D01*
X118519540Y-102106682D01*
X118524855Y-102108106D01*
X118759600Y-102128644D01*
X118994345Y-102108106D01*
X118999660Y-102106682D01*
X119216648Y-102048541D01*
X119216650Y-102048540D01*
X119221958Y-102047118D01*
X119227952Y-102044323D01*
X119430541Y-101949854D01*
X119430544Y-101949852D01*
X119435522Y-101947531D01*
X119628549Y-101812373D01*
X119795173Y-101645749D01*
X119906387Y-101486918D01*
X119961844Y-101442589D01*
X120032463Y-101435280D01*
X120095824Y-101467310D01*
X120112813Y-101486918D01*
X120224027Y-101645749D01*
X120390651Y-101812373D01*
X120583678Y-101947531D01*
X120588656Y-101949852D01*
X120588659Y-101949854D01*
X120791248Y-102044323D01*
X120797242Y-102047118D01*
X120802550Y-102048540D01*
X120802552Y-102048541D01*
X121019540Y-102106682D01*
X121024855Y-102108106D01*
X121259600Y-102128644D01*
X121494345Y-102108106D01*
X121499660Y-102106682D01*
X121716648Y-102048541D01*
X121716650Y-102048540D01*
X121721958Y-102047118D01*
X121727952Y-102044323D01*
X121930541Y-101949854D01*
X121930544Y-101949852D01*
X121935522Y-101947531D01*
X122017271Y-101890290D01*
X123010664Y-101890290D01*
X123019958Y-101902304D01*
X123079421Y-101943940D01*
X123088916Y-101949423D01*
X123292432Y-102044323D01*
X123302724Y-102048069D01*
X123519627Y-102106188D01*
X123530422Y-102108091D01*
X123754125Y-102127663D01*
X123765075Y-102127663D01*
X123988778Y-102108091D01*
X123999573Y-102106188D01*
X124216476Y-102048069D01*
X124226768Y-102044323D01*
X124430284Y-101949423D01*
X124439779Y-101943940D01*
X124500077Y-101901719D01*
X124508452Y-101891242D01*
X124501385Y-101877796D01*
X123772411Y-101148821D01*
X123758468Y-101141208D01*
X123756634Y-101141339D01*
X123750020Y-101145590D01*
X123017091Y-101878520D01*
X123010664Y-101890290D01*
X122017271Y-101890290D01*
X122128549Y-101812373D01*
X122295173Y-101645749D01*
X122406692Y-101486482D01*
X122462149Y-101442154D01*
X122532768Y-101434845D01*
X122596129Y-101466875D01*
X122613118Y-101486482D01*
X122634681Y-101517277D01*
X122645158Y-101525652D01*
X122658604Y-101518585D01*
X123387579Y-100789611D01*
X123393956Y-100777932D01*
X124124008Y-100777932D01*
X124124139Y-100779766D01*
X124128390Y-100786380D01*
X124861320Y-101519309D01*
X124873090Y-101525736D01*
X124885104Y-101516442D01*
X124926740Y-101456979D01*
X124932223Y-101447484D01*
X125027123Y-101243968D01*
X125030869Y-101233676D01*
X125088988Y-101016773D01*
X125090891Y-101005978D01*
X125110463Y-100782275D01*
X125110463Y-100776800D01*
X145347756Y-100776800D01*
X145368294Y-101011545D01*
X145369718Y-101016859D01*
X145369718Y-101016860D01*
X145405077Y-101148821D01*
X145429282Y-101239158D01*
X145431604Y-101244138D01*
X145431605Y-101244140D01*
X145520736Y-101435280D01*
X145528869Y-101452722D01*
X145664027Y-101645749D01*
X145830651Y-101812373D01*
X146023678Y-101947531D01*
X146028656Y-101949852D01*
X146028659Y-101949854D01*
X146231248Y-102044323D01*
X146237242Y-102047118D01*
X146242550Y-102048540D01*
X146242552Y-102048541D01*
X146459540Y-102106682D01*
X146464855Y-102108106D01*
X146699600Y-102128644D01*
X146934345Y-102108106D01*
X146939660Y-102106682D01*
X147156648Y-102048541D01*
X147156650Y-102048540D01*
X147161958Y-102047118D01*
X147167952Y-102044323D01*
X147370541Y-101949854D01*
X147370544Y-101949852D01*
X147375522Y-101947531D01*
X147568549Y-101812373D01*
X147735173Y-101645749D01*
X147846387Y-101486918D01*
X147901844Y-101442589D01*
X147972463Y-101435280D01*
X148035824Y-101467310D01*
X148052813Y-101486918D01*
X148164027Y-101645749D01*
X148330651Y-101812373D01*
X148523678Y-101947531D01*
X148528656Y-101949852D01*
X148528659Y-101949854D01*
X148731248Y-102044323D01*
X148737242Y-102047118D01*
X148742550Y-102048540D01*
X148742552Y-102048541D01*
X148959540Y-102106682D01*
X148964855Y-102108106D01*
X149199600Y-102128644D01*
X149434345Y-102108106D01*
X149439660Y-102106682D01*
X149656648Y-102048541D01*
X149656650Y-102048540D01*
X149661958Y-102047118D01*
X149667952Y-102044323D01*
X149870541Y-101949854D01*
X149870544Y-101949852D01*
X149875522Y-101947531D01*
X149957271Y-101890290D01*
X150950664Y-101890290D01*
X150959958Y-101902304D01*
X151019421Y-101943940D01*
X151028916Y-101949423D01*
X151232432Y-102044323D01*
X151242724Y-102048069D01*
X151459627Y-102106188D01*
X151470422Y-102108091D01*
X151694125Y-102127663D01*
X151705075Y-102127663D01*
X151928778Y-102108091D01*
X151939573Y-102106188D01*
X152156476Y-102048069D01*
X152166768Y-102044323D01*
X152370284Y-101949423D01*
X152379779Y-101943940D01*
X152440077Y-101901719D01*
X152448452Y-101891242D01*
X152441385Y-101877796D01*
X151712411Y-101148821D01*
X151698468Y-101141208D01*
X151696634Y-101141339D01*
X151690020Y-101145590D01*
X150957091Y-101878520D01*
X150950664Y-101890290D01*
X149957271Y-101890290D01*
X150068549Y-101812373D01*
X150235173Y-101645749D01*
X150346692Y-101486482D01*
X150402149Y-101442154D01*
X150472768Y-101434845D01*
X150536129Y-101466875D01*
X150553118Y-101486482D01*
X150574681Y-101517277D01*
X150585158Y-101525652D01*
X150598604Y-101518585D01*
X151327579Y-100789611D01*
X151333956Y-100777932D01*
X152064008Y-100777932D01*
X152064139Y-100779766D01*
X152068390Y-100786380D01*
X152801320Y-101519309D01*
X152813090Y-101525736D01*
X152825104Y-101516442D01*
X152866740Y-101456979D01*
X152872223Y-101447484D01*
X152967123Y-101243968D01*
X152970869Y-101233676D01*
X153028988Y-101016773D01*
X153030891Y-101005978D01*
X153050463Y-100782275D01*
X153050463Y-100776800D01*
X173287756Y-100776800D01*
X173308294Y-101011545D01*
X173309718Y-101016859D01*
X173309718Y-101016860D01*
X173345077Y-101148821D01*
X173369282Y-101239158D01*
X173371604Y-101244138D01*
X173371605Y-101244140D01*
X173460736Y-101435280D01*
X173468869Y-101452722D01*
X173604027Y-101645749D01*
X173770651Y-101812373D01*
X173963678Y-101947531D01*
X173968656Y-101949852D01*
X173968659Y-101949854D01*
X174171248Y-102044323D01*
X174177242Y-102047118D01*
X174182550Y-102048540D01*
X174182552Y-102048541D01*
X174399540Y-102106682D01*
X174404855Y-102108106D01*
X174639600Y-102128644D01*
X174874345Y-102108106D01*
X174879660Y-102106682D01*
X175096648Y-102048541D01*
X175096650Y-102048540D01*
X175101958Y-102047118D01*
X175107952Y-102044323D01*
X175310541Y-101949854D01*
X175310544Y-101949852D01*
X175315522Y-101947531D01*
X175508549Y-101812373D01*
X175675173Y-101645749D01*
X175786387Y-101486918D01*
X175841844Y-101442589D01*
X175912463Y-101435280D01*
X175975824Y-101467310D01*
X175992813Y-101486918D01*
X176104027Y-101645749D01*
X176270651Y-101812373D01*
X176463678Y-101947531D01*
X176468656Y-101949852D01*
X176468659Y-101949854D01*
X176671248Y-102044323D01*
X176677242Y-102047118D01*
X176682550Y-102048540D01*
X176682552Y-102048541D01*
X176899540Y-102106682D01*
X176904855Y-102108106D01*
X177139600Y-102128644D01*
X177374345Y-102108106D01*
X177379660Y-102106682D01*
X177596648Y-102048541D01*
X177596650Y-102048540D01*
X177601958Y-102047118D01*
X177607952Y-102044323D01*
X177810541Y-101949854D01*
X177810544Y-101949852D01*
X177815522Y-101947531D01*
X177897271Y-101890290D01*
X178890664Y-101890290D01*
X178899958Y-101902304D01*
X178959421Y-101943940D01*
X178968916Y-101949423D01*
X179172432Y-102044323D01*
X179182724Y-102048069D01*
X179399627Y-102106188D01*
X179410422Y-102108091D01*
X179634125Y-102127663D01*
X179645075Y-102127663D01*
X179868778Y-102108091D01*
X179879573Y-102106188D01*
X180096476Y-102048069D01*
X180106768Y-102044323D01*
X180310284Y-101949423D01*
X180319779Y-101943940D01*
X180380077Y-101901719D01*
X180388452Y-101891242D01*
X180381385Y-101877796D01*
X179652411Y-101148821D01*
X179638468Y-101141208D01*
X179636634Y-101141339D01*
X179630020Y-101145590D01*
X178897091Y-101878520D01*
X178890664Y-101890290D01*
X177897271Y-101890290D01*
X178008549Y-101812373D01*
X178175173Y-101645749D01*
X178286692Y-101486482D01*
X178342149Y-101442154D01*
X178412768Y-101434845D01*
X178476129Y-101466875D01*
X178493118Y-101486482D01*
X178514681Y-101517277D01*
X178525158Y-101525652D01*
X178538604Y-101518585D01*
X179267579Y-100789611D01*
X179273956Y-100777932D01*
X180004008Y-100777932D01*
X180004139Y-100779766D01*
X180008390Y-100786380D01*
X180741320Y-101519309D01*
X180753090Y-101525736D01*
X180765104Y-101516442D01*
X180806740Y-101456979D01*
X180812223Y-101447484D01*
X180907123Y-101243968D01*
X180910869Y-101233676D01*
X180968988Y-101016773D01*
X180970891Y-101005978D01*
X180990463Y-100782275D01*
X180990463Y-100776800D01*
X201227756Y-100776800D01*
X201248294Y-101011545D01*
X201249718Y-101016859D01*
X201249718Y-101016860D01*
X201285077Y-101148821D01*
X201309282Y-101239158D01*
X201311604Y-101244138D01*
X201311605Y-101244140D01*
X201400736Y-101435280D01*
X201408869Y-101452722D01*
X201544027Y-101645749D01*
X201710651Y-101812373D01*
X201903678Y-101947531D01*
X201908656Y-101949852D01*
X201908659Y-101949854D01*
X202111248Y-102044323D01*
X202117242Y-102047118D01*
X202122550Y-102048540D01*
X202122552Y-102048541D01*
X202339540Y-102106682D01*
X202344855Y-102108106D01*
X202579600Y-102128644D01*
X202814345Y-102108106D01*
X202819660Y-102106682D01*
X203036648Y-102048541D01*
X203036650Y-102048540D01*
X203041958Y-102047118D01*
X203047952Y-102044323D01*
X203250541Y-101949854D01*
X203250544Y-101949852D01*
X203255522Y-101947531D01*
X203448549Y-101812373D01*
X203615173Y-101645749D01*
X203726387Y-101486918D01*
X203781844Y-101442589D01*
X203852463Y-101435280D01*
X203915824Y-101467310D01*
X203932813Y-101486918D01*
X204044027Y-101645749D01*
X204210651Y-101812373D01*
X204403678Y-101947531D01*
X204408656Y-101949852D01*
X204408659Y-101949854D01*
X204611248Y-102044323D01*
X204617242Y-102047118D01*
X204622550Y-102048540D01*
X204622552Y-102048541D01*
X204839540Y-102106682D01*
X204844855Y-102108106D01*
X205079600Y-102128644D01*
X205314345Y-102108106D01*
X205319660Y-102106682D01*
X205536648Y-102048541D01*
X205536650Y-102048540D01*
X205541958Y-102047118D01*
X205547952Y-102044323D01*
X205750541Y-101949854D01*
X205750544Y-101949852D01*
X205755522Y-101947531D01*
X205837271Y-101890290D01*
X206830664Y-101890290D01*
X206839958Y-101902304D01*
X206899421Y-101943940D01*
X206908916Y-101949423D01*
X207112432Y-102044323D01*
X207122724Y-102048069D01*
X207339627Y-102106188D01*
X207350422Y-102108091D01*
X207574125Y-102127663D01*
X207585075Y-102127663D01*
X207808778Y-102108091D01*
X207819573Y-102106188D01*
X208036476Y-102048069D01*
X208046768Y-102044323D01*
X208250284Y-101949423D01*
X208259779Y-101943940D01*
X208320077Y-101901719D01*
X208328452Y-101891242D01*
X208321385Y-101877796D01*
X207592411Y-101148821D01*
X207578468Y-101141208D01*
X207576634Y-101141339D01*
X207570020Y-101145590D01*
X206837091Y-101878520D01*
X206830664Y-101890290D01*
X205837271Y-101890290D01*
X205948549Y-101812373D01*
X206115173Y-101645749D01*
X206226692Y-101486482D01*
X206282149Y-101442154D01*
X206352768Y-101434845D01*
X206416129Y-101466875D01*
X206433118Y-101486482D01*
X206454681Y-101517277D01*
X206465158Y-101525652D01*
X206478604Y-101518585D01*
X207207579Y-100789611D01*
X207213956Y-100777932D01*
X207944008Y-100777932D01*
X207944139Y-100779766D01*
X207948390Y-100786380D01*
X208681320Y-101519309D01*
X208693090Y-101525736D01*
X208705104Y-101516442D01*
X208746740Y-101456979D01*
X208752223Y-101447484D01*
X208847123Y-101243968D01*
X208850869Y-101233676D01*
X208908988Y-101016773D01*
X208910891Y-101005978D01*
X208930463Y-100782275D01*
X208930463Y-100771325D01*
X208910891Y-100547622D01*
X208908988Y-100536827D01*
X208850869Y-100319924D01*
X208847123Y-100309632D01*
X208752223Y-100106116D01*
X208746740Y-100096621D01*
X208704519Y-100036323D01*
X208694042Y-100027948D01*
X208680596Y-100035015D01*
X207951621Y-100763989D01*
X207944008Y-100777932D01*
X207213956Y-100777932D01*
X207215192Y-100775668D01*
X207215061Y-100773834D01*
X207210810Y-100767220D01*
X206477880Y-100034291D01*
X206466110Y-100027864D01*
X206454096Y-100037158D01*
X206433118Y-100067118D01*
X206377661Y-100111446D01*
X206307042Y-100118755D01*
X206243681Y-100086724D01*
X206226692Y-100067118D01*
X206205129Y-100036323D01*
X206115173Y-99907851D01*
X205948549Y-99741227D01*
X205835912Y-99662358D01*
X206830748Y-99662358D01*
X206837815Y-99675804D01*
X207566789Y-100404779D01*
X207580732Y-100412392D01*
X207582566Y-100412261D01*
X207589180Y-100408010D01*
X208322109Y-99675080D01*
X208328536Y-99663310D01*
X208319242Y-99651296D01*
X208259779Y-99609660D01*
X208250284Y-99604177D01*
X208046768Y-99509277D01*
X208036476Y-99505531D01*
X207819573Y-99447412D01*
X207808778Y-99445509D01*
X207585075Y-99425937D01*
X207574125Y-99425937D01*
X207350422Y-99445509D01*
X207339627Y-99447412D01*
X207122724Y-99505531D01*
X207112432Y-99509277D01*
X206908916Y-99604177D01*
X206899421Y-99609660D01*
X206839123Y-99651881D01*
X206830748Y-99662358D01*
X205835912Y-99662358D01*
X205755522Y-99606069D01*
X205750544Y-99603748D01*
X205750541Y-99603746D01*
X205546940Y-99508805D01*
X205546938Y-99508804D01*
X205541958Y-99506482D01*
X205536650Y-99505060D01*
X205536648Y-99505059D01*
X205319660Y-99446918D01*
X205319659Y-99446918D01*
X205314345Y-99445494D01*
X205079600Y-99424956D01*
X204844855Y-99445494D01*
X204839541Y-99446918D01*
X204839540Y-99446918D01*
X204622552Y-99505059D01*
X204622550Y-99505060D01*
X204617242Y-99506482D01*
X204612262Y-99508804D01*
X204612260Y-99508805D01*
X204408659Y-99603746D01*
X204408656Y-99603748D01*
X204403678Y-99606069D01*
X204210651Y-99741227D01*
X204044027Y-99907851D01*
X204040868Y-99912363D01*
X203932813Y-100066682D01*
X203877356Y-100111011D01*
X203806737Y-100118320D01*
X203743376Y-100086290D01*
X203726387Y-100066682D01*
X203618332Y-99912363D01*
X203615173Y-99907851D01*
X203448549Y-99741227D01*
X203255522Y-99606069D01*
X203250544Y-99603748D01*
X203250541Y-99603746D01*
X203046940Y-99508805D01*
X203046938Y-99508804D01*
X203041958Y-99506482D01*
X203036650Y-99505060D01*
X203036648Y-99505059D01*
X202819660Y-99446918D01*
X202819659Y-99446918D01*
X202814345Y-99445494D01*
X202579600Y-99424956D01*
X202344855Y-99445494D01*
X202339541Y-99446918D01*
X202339540Y-99446918D01*
X202122552Y-99505059D01*
X202122550Y-99505060D01*
X202117242Y-99506482D01*
X202112262Y-99508804D01*
X202112260Y-99508805D01*
X201908659Y-99603746D01*
X201908656Y-99603748D01*
X201903678Y-99606069D01*
X201710651Y-99741227D01*
X201544027Y-99907851D01*
X201408869Y-100100878D01*
X201406548Y-100105856D01*
X201406546Y-100105859D01*
X201329600Y-100270870D01*
X201309282Y-100314442D01*
X201307860Y-100319750D01*
X201307859Y-100319752D01*
X201284211Y-100408010D01*
X201248294Y-100542055D01*
X201227756Y-100776800D01*
X180990463Y-100776800D01*
X180990463Y-100771325D01*
X180970891Y-100547622D01*
X180968988Y-100536827D01*
X180910869Y-100319924D01*
X180907123Y-100309632D01*
X180812223Y-100106116D01*
X180806740Y-100096621D01*
X180764519Y-100036323D01*
X180754042Y-100027948D01*
X180740596Y-100035015D01*
X180011621Y-100763989D01*
X180004008Y-100777932D01*
X179273956Y-100777932D01*
X179275192Y-100775668D01*
X179275061Y-100773834D01*
X179270810Y-100767220D01*
X178537880Y-100034291D01*
X178526110Y-100027864D01*
X178514096Y-100037158D01*
X178493118Y-100067118D01*
X178437661Y-100111446D01*
X178367042Y-100118755D01*
X178303681Y-100086724D01*
X178286692Y-100067118D01*
X178265129Y-100036323D01*
X178175173Y-99907851D01*
X178008549Y-99741227D01*
X177895912Y-99662358D01*
X178890748Y-99662358D01*
X178897815Y-99675804D01*
X179626789Y-100404779D01*
X179640732Y-100412392D01*
X179642566Y-100412261D01*
X179649180Y-100408010D01*
X180382109Y-99675080D01*
X180388536Y-99663310D01*
X180379242Y-99651296D01*
X180319779Y-99609660D01*
X180310284Y-99604177D01*
X180106768Y-99509277D01*
X180096476Y-99505531D01*
X179879573Y-99447412D01*
X179868778Y-99445509D01*
X179645075Y-99425937D01*
X179634125Y-99425937D01*
X179410422Y-99445509D01*
X179399627Y-99447412D01*
X179182724Y-99505531D01*
X179172432Y-99509277D01*
X178968916Y-99604177D01*
X178959421Y-99609660D01*
X178899123Y-99651881D01*
X178890748Y-99662358D01*
X177895912Y-99662358D01*
X177815522Y-99606069D01*
X177810544Y-99603748D01*
X177810541Y-99603746D01*
X177606940Y-99508805D01*
X177606938Y-99508804D01*
X177601958Y-99506482D01*
X177596650Y-99505060D01*
X177596648Y-99505059D01*
X177379660Y-99446918D01*
X177379659Y-99446918D01*
X177374345Y-99445494D01*
X177139600Y-99424956D01*
X176904855Y-99445494D01*
X176899541Y-99446918D01*
X176899540Y-99446918D01*
X176682552Y-99505059D01*
X176682550Y-99505060D01*
X176677242Y-99506482D01*
X176672262Y-99508804D01*
X176672260Y-99508805D01*
X176468659Y-99603746D01*
X176468656Y-99603748D01*
X176463678Y-99606069D01*
X176270651Y-99741227D01*
X176104027Y-99907851D01*
X176100868Y-99912363D01*
X175992813Y-100066682D01*
X175937356Y-100111011D01*
X175866737Y-100118320D01*
X175803376Y-100086290D01*
X175786387Y-100066682D01*
X175678332Y-99912363D01*
X175675173Y-99907851D01*
X175508549Y-99741227D01*
X175315522Y-99606069D01*
X175310544Y-99603748D01*
X175310541Y-99603746D01*
X175106940Y-99508805D01*
X175106938Y-99508804D01*
X175101958Y-99506482D01*
X175096650Y-99505060D01*
X175096648Y-99505059D01*
X174879660Y-99446918D01*
X174879659Y-99446918D01*
X174874345Y-99445494D01*
X174639600Y-99424956D01*
X174404855Y-99445494D01*
X174399541Y-99446918D01*
X174399540Y-99446918D01*
X174182552Y-99505059D01*
X174182550Y-99505060D01*
X174177242Y-99506482D01*
X174172262Y-99508804D01*
X174172260Y-99508805D01*
X173968659Y-99603746D01*
X173968656Y-99603748D01*
X173963678Y-99606069D01*
X173770651Y-99741227D01*
X173604027Y-99907851D01*
X173468869Y-100100878D01*
X173466548Y-100105856D01*
X173466546Y-100105859D01*
X173389600Y-100270870D01*
X173369282Y-100314442D01*
X173367860Y-100319750D01*
X173367859Y-100319752D01*
X173344211Y-100408010D01*
X173308294Y-100542055D01*
X173287756Y-100776800D01*
X153050463Y-100776800D01*
X153050463Y-100771325D01*
X153030891Y-100547622D01*
X153028988Y-100536827D01*
X152970869Y-100319924D01*
X152967123Y-100309632D01*
X152872223Y-100106116D01*
X152866740Y-100096621D01*
X152824519Y-100036323D01*
X152814042Y-100027948D01*
X152800596Y-100035015D01*
X152071621Y-100763989D01*
X152064008Y-100777932D01*
X151333956Y-100777932D01*
X151335192Y-100775668D01*
X151335061Y-100773834D01*
X151330810Y-100767220D01*
X150597880Y-100034291D01*
X150586110Y-100027864D01*
X150574096Y-100037158D01*
X150553118Y-100067118D01*
X150497661Y-100111446D01*
X150427042Y-100118755D01*
X150363681Y-100086724D01*
X150346692Y-100067118D01*
X150325129Y-100036323D01*
X150235173Y-99907851D01*
X150068549Y-99741227D01*
X149955912Y-99662358D01*
X150950748Y-99662358D01*
X150957815Y-99675804D01*
X151686789Y-100404779D01*
X151700732Y-100412392D01*
X151702566Y-100412261D01*
X151709180Y-100408010D01*
X152442109Y-99675080D01*
X152448536Y-99663310D01*
X152439242Y-99651296D01*
X152379779Y-99609660D01*
X152370284Y-99604177D01*
X152166768Y-99509277D01*
X152156476Y-99505531D01*
X151939573Y-99447412D01*
X151928778Y-99445509D01*
X151705075Y-99425937D01*
X151694125Y-99425937D01*
X151470422Y-99445509D01*
X151459627Y-99447412D01*
X151242724Y-99505531D01*
X151232432Y-99509277D01*
X151028916Y-99604177D01*
X151019421Y-99609660D01*
X150959123Y-99651881D01*
X150950748Y-99662358D01*
X149955912Y-99662358D01*
X149875522Y-99606069D01*
X149870544Y-99603748D01*
X149870541Y-99603746D01*
X149666940Y-99508805D01*
X149666938Y-99508804D01*
X149661958Y-99506482D01*
X149656650Y-99505060D01*
X149656648Y-99505059D01*
X149439660Y-99446918D01*
X149439659Y-99446918D01*
X149434345Y-99445494D01*
X149199600Y-99424956D01*
X148964855Y-99445494D01*
X148959541Y-99446918D01*
X148959540Y-99446918D01*
X148742552Y-99505059D01*
X148742550Y-99505060D01*
X148737242Y-99506482D01*
X148732262Y-99508804D01*
X148732260Y-99508805D01*
X148528659Y-99603746D01*
X148528656Y-99603748D01*
X148523678Y-99606069D01*
X148330651Y-99741227D01*
X148164027Y-99907851D01*
X148160868Y-99912363D01*
X148052813Y-100066682D01*
X147997356Y-100111011D01*
X147926737Y-100118320D01*
X147863376Y-100086290D01*
X147846387Y-100066682D01*
X147738332Y-99912363D01*
X147735173Y-99907851D01*
X147568549Y-99741227D01*
X147375522Y-99606069D01*
X147370544Y-99603748D01*
X147370541Y-99603746D01*
X147166940Y-99508805D01*
X147166938Y-99508804D01*
X147161958Y-99506482D01*
X147156650Y-99505060D01*
X147156648Y-99505059D01*
X146939660Y-99446918D01*
X146939659Y-99446918D01*
X146934345Y-99445494D01*
X146699600Y-99424956D01*
X146464855Y-99445494D01*
X146459541Y-99446918D01*
X146459540Y-99446918D01*
X146242552Y-99505059D01*
X146242550Y-99505060D01*
X146237242Y-99506482D01*
X146232262Y-99508804D01*
X146232260Y-99508805D01*
X146028659Y-99603746D01*
X146028656Y-99603748D01*
X146023678Y-99606069D01*
X145830651Y-99741227D01*
X145664027Y-99907851D01*
X145528869Y-100100878D01*
X145526548Y-100105856D01*
X145526546Y-100105859D01*
X145449600Y-100270870D01*
X145429282Y-100314442D01*
X145427860Y-100319750D01*
X145427859Y-100319752D01*
X145404211Y-100408010D01*
X145368294Y-100542055D01*
X145347756Y-100776800D01*
X125110463Y-100776800D01*
X125110463Y-100771325D01*
X125090891Y-100547622D01*
X125088988Y-100536827D01*
X125030869Y-100319924D01*
X125027123Y-100309632D01*
X124932223Y-100106116D01*
X124926740Y-100096621D01*
X124884519Y-100036323D01*
X124874042Y-100027948D01*
X124860596Y-100035015D01*
X124131621Y-100763989D01*
X124124008Y-100777932D01*
X123393956Y-100777932D01*
X123395192Y-100775668D01*
X123395061Y-100773834D01*
X123390810Y-100767220D01*
X122657880Y-100034291D01*
X122646110Y-100027864D01*
X122634096Y-100037158D01*
X122613118Y-100067118D01*
X122557661Y-100111446D01*
X122487042Y-100118755D01*
X122423681Y-100086724D01*
X122406692Y-100067118D01*
X122385129Y-100036323D01*
X122295173Y-99907851D01*
X122128549Y-99741227D01*
X122015912Y-99662358D01*
X123010748Y-99662358D01*
X123017815Y-99675804D01*
X123746789Y-100404779D01*
X123760732Y-100412392D01*
X123762566Y-100412261D01*
X123769180Y-100408010D01*
X124502109Y-99675080D01*
X124508536Y-99663310D01*
X124499242Y-99651296D01*
X124439779Y-99609660D01*
X124430284Y-99604177D01*
X124226768Y-99509277D01*
X124216476Y-99505531D01*
X123999573Y-99447412D01*
X123988778Y-99445509D01*
X123765075Y-99425937D01*
X123754125Y-99425937D01*
X123530422Y-99445509D01*
X123519627Y-99447412D01*
X123302724Y-99505531D01*
X123292432Y-99509277D01*
X123088916Y-99604177D01*
X123079421Y-99609660D01*
X123019123Y-99651881D01*
X123010748Y-99662358D01*
X122015912Y-99662358D01*
X121935522Y-99606069D01*
X121930544Y-99603748D01*
X121930541Y-99603746D01*
X121726940Y-99508805D01*
X121726938Y-99508804D01*
X121721958Y-99506482D01*
X121716650Y-99505060D01*
X121716648Y-99505059D01*
X121499660Y-99446918D01*
X121499659Y-99446918D01*
X121494345Y-99445494D01*
X121259600Y-99424956D01*
X121024855Y-99445494D01*
X121019541Y-99446918D01*
X121019540Y-99446918D01*
X120802552Y-99505059D01*
X120802550Y-99505060D01*
X120797242Y-99506482D01*
X120792262Y-99508804D01*
X120792260Y-99508805D01*
X120588659Y-99603746D01*
X120588656Y-99603748D01*
X120583678Y-99606069D01*
X120390651Y-99741227D01*
X120224027Y-99907851D01*
X120220868Y-99912363D01*
X120112813Y-100066682D01*
X120057356Y-100111011D01*
X119986737Y-100118320D01*
X119923376Y-100086290D01*
X119906387Y-100066682D01*
X119798332Y-99912363D01*
X119795173Y-99907851D01*
X119628549Y-99741227D01*
X119435522Y-99606069D01*
X119430544Y-99603748D01*
X119430541Y-99603746D01*
X119226940Y-99508805D01*
X119226938Y-99508804D01*
X119221958Y-99506482D01*
X119216650Y-99505060D01*
X119216648Y-99505059D01*
X118999660Y-99446918D01*
X118999659Y-99446918D01*
X118994345Y-99445494D01*
X118759600Y-99424956D01*
X118524855Y-99445494D01*
X118519541Y-99446918D01*
X118519540Y-99446918D01*
X118302552Y-99505059D01*
X118302550Y-99505060D01*
X118297242Y-99506482D01*
X118292262Y-99508804D01*
X118292260Y-99508805D01*
X118088659Y-99603746D01*
X118088656Y-99603748D01*
X118083678Y-99606069D01*
X117890651Y-99741227D01*
X117724027Y-99907851D01*
X117588869Y-100100878D01*
X117586548Y-100105856D01*
X117586546Y-100105859D01*
X117509600Y-100270870D01*
X117489282Y-100314442D01*
X117487860Y-100319750D01*
X117487859Y-100319752D01*
X117464211Y-100408010D01*
X117428294Y-100542055D01*
X117407756Y-100776800D01*
X97170463Y-100776800D01*
X97170463Y-100771325D01*
X97150891Y-100547622D01*
X97148988Y-100536827D01*
X97090869Y-100319924D01*
X97087123Y-100309632D01*
X96992223Y-100106116D01*
X96986740Y-100096621D01*
X96944519Y-100036323D01*
X96934042Y-100027948D01*
X96920596Y-100035015D01*
X96191621Y-100763989D01*
X96184008Y-100777932D01*
X95453956Y-100777932D01*
X95455192Y-100775668D01*
X95455061Y-100773834D01*
X95450810Y-100767220D01*
X94717880Y-100034291D01*
X94706110Y-100027864D01*
X94694096Y-100037158D01*
X94673118Y-100067118D01*
X94617661Y-100111446D01*
X94547042Y-100118755D01*
X94483681Y-100086724D01*
X94466692Y-100067118D01*
X94445129Y-100036323D01*
X94355173Y-99907851D01*
X94188549Y-99741227D01*
X94075912Y-99662358D01*
X95070748Y-99662358D01*
X95077815Y-99675804D01*
X95806789Y-100404779D01*
X95820732Y-100412392D01*
X95822566Y-100412261D01*
X95829180Y-100408010D01*
X96562109Y-99675080D01*
X96568536Y-99663310D01*
X96559242Y-99651296D01*
X96499779Y-99609660D01*
X96490284Y-99604177D01*
X96286768Y-99509277D01*
X96276476Y-99505531D01*
X96059573Y-99447412D01*
X96048778Y-99445509D01*
X95825075Y-99425937D01*
X95814125Y-99425937D01*
X95590422Y-99445509D01*
X95579627Y-99447412D01*
X95362724Y-99505531D01*
X95352432Y-99509277D01*
X95148916Y-99604177D01*
X95139421Y-99609660D01*
X95079123Y-99651881D01*
X95070748Y-99662358D01*
X94075912Y-99662358D01*
X94008830Y-99615387D01*
X93964501Y-99559930D01*
X93955100Y-99512174D01*
X93955100Y-99426222D01*
X93975102Y-99358101D01*
X93992005Y-99337127D01*
X96339928Y-96989205D01*
X96402240Y-96955179D01*
X96429023Y-96952300D01*
X121180580Y-96952300D01*
X121191814Y-96952830D01*
X121199319Y-96954508D01*
X121267612Y-96952362D01*
X121271569Y-96952300D01*
X121299583Y-96952300D01*
X121303508Y-96951804D01*
X121303509Y-96951804D01*
X121303604Y-96951792D01*
X121315449Y-96950859D01*
X121345270Y-96949922D01*
X121351882Y-96949714D01*
X121351883Y-96949714D01*
X121359805Y-96949465D01*
X121379349Y-96943787D01*
X121398712Y-96939777D01*
X121411040Y-96938220D01*
X121411042Y-96938220D01*
X121418899Y-96937227D01*
X121426263Y-96934311D01*
X121426268Y-96934310D01*
X121460156Y-96920893D01*
X121471385Y-96917048D01*
X121488065Y-96912202D01*
X121513993Y-96904669D01*
X121520820Y-96900631D01*
X121520823Y-96900630D01*
X121531506Y-96894312D01*
X121549264Y-96885612D01*
X121560815Y-96881039D01*
X121560821Y-96881035D01*
X121568188Y-96878119D01*
X121604091Y-96852034D01*
X121614010Y-96845519D01*
X121645368Y-96826974D01*
X121645372Y-96826971D01*
X121652198Y-96822934D01*
X121666582Y-96808550D01*
X121681616Y-96795709D01*
X121691673Y-96788402D01*
X121698087Y-96783742D01*
X121726378Y-96749544D01*
X121734367Y-96740765D01*
X121907077Y-96568055D01*
X121915403Y-96560478D01*
X121921903Y-96556353D01*
X121968701Y-96506518D01*
X121971455Y-96503677D01*
X121991238Y-96483894D01*
X121993729Y-96480683D01*
X122001438Y-96471656D01*
X122026389Y-96445086D01*
X122031817Y-96439306D01*
X122041622Y-96421471D01*
X122052476Y-96404947D01*
X122060091Y-96395130D01*
X122060092Y-96395129D01*
X122064949Y-96388867D01*
X122082569Y-96348150D01*
X122087792Y-96337489D01*
X122105349Y-96305553D01*
X122105351Y-96305548D01*
X122109169Y-96298603D01*
X122111139Y-96290929D01*
X122111142Y-96290922D01*
X122114232Y-96278887D01*
X122120636Y-96260182D01*
X122125567Y-96248787D01*
X122128717Y-96241508D01*
X122135660Y-96197673D01*
X122138067Y-96186051D01*
X122149100Y-96143082D01*
X122149100Y-96122735D01*
X122150651Y-96103024D01*
X122152595Y-96090750D01*
X122153835Y-96082921D01*
X122149659Y-96038744D01*
X122149100Y-96026886D01*
X122149100Y-95432934D01*
X123643100Y-95432934D01*
X123649855Y-95495116D01*
X123700985Y-95631505D01*
X123788339Y-95748061D01*
X123904895Y-95835415D01*
X124041284Y-95886545D01*
X124103466Y-95893300D01*
X127415734Y-95893300D01*
X127477916Y-95886545D01*
X127614305Y-95835415D01*
X127730861Y-95748061D01*
X127818215Y-95631505D01*
X127869345Y-95495116D01*
X127876100Y-95432934D01*
X142583100Y-95432934D01*
X142589855Y-95495116D01*
X142640985Y-95631505D01*
X142728339Y-95748061D01*
X142844895Y-95835415D01*
X142981284Y-95886545D01*
X143043466Y-95893300D01*
X146355734Y-95893300D01*
X146417916Y-95886545D01*
X146554305Y-95835415D01*
X146670861Y-95748061D01*
X146758215Y-95631505D01*
X146809345Y-95495116D01*
X146816100Y-95432934D01*
X151583100Y-95432934D01*
X151589855Y-95495116D01*
X151640985Y-95631505D01*
X151728339Y-95748061D01*
X151844895Y-95835415D01*
X151981284Y-95886545D01*
X152043466Y-95893300D01*
X155355734Y-95893300D01*
X155417916Y-95886545D01*
X155554305Y-95835415D01*
X155670861Y-95748061D01*
X155758215Y-95631505D01*
X155809345Y-95495116D01*
X155816100Y-95432934D01*
X170523100Y-95432934D01*
X170529855Y-95495116D01*
X170580985Y-95631505D01*
X170668339Y-95748061D01*
X170784895Y-95835415D01*
X170921284Y-95886545D01*
X170983466Y-95893300D01*
X174295734Y-95893300D01*
X174357916Y-95886545D01*
X174494305Y-95835415D01*
X174610861Y-95748061D01*
X174698215Y-95631505D01*
X174749345Y-95495116D01*
X174756100Y-95432934D01*
X179523100Y-95432934D01*
X179529855Y-95495116D01*
X179580985Y-95631505D01*
X179668339Y-95748061D01*
X179784895Y-95835415D01*
X179921284Y-95886545D01*
X179983466Y-95893300D01*
X183295734Y-95893300D01*
X183357916Y-95886545D01*
X183494305Y-95835415D01*
X183610861Y-95748061D01*
X183698215Y-95631505D01*
X183749345Y-95495116D01*
X183756100Y-95432934D01*
X198463100Y-95432934D01*
X198469855Y-95495116D01*
X198520985Y-95631505D01*
X198608339Y-95748061D01*
X198724895Y-95835415D01*
X198861284Y-95886545D01*
X198923466Y-95893300D01*
X202235734Y-95893300D01*
X202297916Y-95886545D01*
X202434305Y-95835415D01*
X202550861Y-95748061D01*
X202638215Y-95631505D01*
X202689345Y-95495116D01*
X202696100Y-95432934D01*
X207463100Y-95432934D01*
X207469855Y-95495116D01*
X207520985Y-95631505D01*
X207608339Y-95748061D01*
X207724895Y-95835415D01*
X207861284Y-95886545D01*
X207923466Y-95893300D01*
X211235734Y-95893300D01*
X211297916Y-95886545D01*
X211434305Y-95835415D01*
X211550861Y-95748061D01*
X211638215Y-95631505D01*
X211689345Y-95495116D01*
X211696100Y-95432934D01*
X211696100Y-92120666D01*
X211689345Y-92058484D01*
X211638215Y-91922095D01*
X211550861Y-91805539D01*
X211434305Y-91718185D01*
X211297916Y-91667055D01*
X211235734Y-91660300D01*
X207923466Y-91660300D01*
X207861284Y-91667055D01*
X207724895Y-91718185D01*
X207608339Y-91805539D01*
X207520985Y-91922095D01*
X207469855Y-92058484D01*
X207463100Y-92120666D01*
X207463100Y-95432934D01*
X202696100Y-95432934D01*
X202696100Y-92120666D01*
X202689345Y-92058484D01*
X202638215Y-91922095D01*
X202550861Y-91805539D01*
X202434305Y-91718185D01*
X202297916Y-91667055D01*
X202235734Y-91660300D01*
X198923466Y-91660300D01*
X198861284Y-91667055D01*
X198724895Y-91718185D01*
X198608339Y-91805539D01*
X198520985Y-91922095D01*
X198469855Y-92058484D01*
X198463100Y-92120666D01*
X198463100Y-95432934D01*
X183756100Y-95432934D01*
X183756100Y-92120666D01*
X183749345Y-92058484D01*
X183698215Y-91922095D01*
X183610861Y-91805539D01*
X183494305Y-91718185D01*
X183357916Y-91667055D01*
X183295734Y-91660300D01*
X179983466Y-91660300D01*
X179921284Y-91667055D01*
X179784895Y-91718185D01*
X179668339Y-91805539D01*
X179580985Y-91922095D01*
X179529855Y-92058484D01*
X179523100Y-92120666D01*
X179523100Y-95432934D01*
X174756100Y-95432934D01*
X174756100Y-92120666D01*
X174749345Y-92058484D01*
X174698215Y-91922095D01*
X174610861Y-91805539D01*
X174494305Y-91718185D01*
X174357916Y-91667055D01*
X174295734Y-91660300D01*
X170983466Y-91660300D01*
X170921284Y-91667055D01*
X170784895Y-91718185D01*
X170668339Y-91805539D01*
X170580985Y-91922095D01*
X170529855Y-92058484D01*
X170523100Y-92120666D01*
X170523100Y-95432934D01*
X155816100Y-95432934D01*
X155816100Y-92120666D01*
X155809345Y-92058484D01*
X155758215Y-91922095D01*
X155670861Y-91805539D01*
X155554305Y-91718185D01*
X155417916Y-91667055D01*
X155355734Y-91660300D01*
X152043466Y-91660300D01*
X151981284Y-91667055D01*
X151844895Y-91718185D01*
X151728339Y-91805539D01*
X151640985Y-91922095D01*
X151589855Y-92058484D01*
X151583100Y-92120666D01*
X151583100Y-95432934D01*
X146816100Y-95432934D01*
X146816100Y-92120666D01*
X146809345Y-92058484D01*
X146758215Y-91922095D01*
X146670861Y-91805539D01*
X146554305Y-91718185D01*
X146417916Y-91667055D01*
X146355734Y-91660300D01*
X143043466Y-91660300D01*
X142981284Y-91667055D01*
X142844895Y-91718185D01*
X142728339Y-91805539D01*
X142640985Y-91922095D01*
X142589855Y-92058484D01*
X142583100Y-92120666D01*
X142583100Y-95432934D01*
X127876100Y-95432934D01*
X127876100Y-92120666D01*
X127869345Y-92058484D01*
X127818215Y-91922095D01*
X127730861Y-91805539D01*
X127614305Y-91718185D01*
X127477916Y-91667055D01*
X127415734Y-91660300D01*
X124103466Y-91660300D01*
X124041284Y-91667055D01*
X123904895Y-91718185D01*
X123788339Y-91805539D01*
X123700985Y-91922095D01*
X123649855Y-92058484D01*
X123643100Y-92120666D01*
X123643100Y-95432934D01*
X122149100Y-95432934D01*
X122149100Y-91044222D01*
X122169102Y-90976101D01*
X122186005Y-90955127D01*
X129867928Y-83273205D01*
X129930240Y-83239179D01*
X129957023Y-83236300D01*
X134912328Y-83236300D01*
X134980449Y-83256302D01*
X135026942Y-83309958D01*
X135037046Y-83380232D01*
X135003421Y-83449351D01*
X134989202Y-83464231D01*
X134986291Y-83468499D01*
X134986287Y-83468504D01*
X134892890Y-83605419D01*
X134854994Y-83660972D01*
X134754722Y-83876991D01*
X134691077Y-84106485D01*
X134690528Y-84111619D01*
X134690528Y-84111621D01*
X134685049Y-84162889D01*
X134665770Y-84343294D01*
X134666067Y-84348446D01*
X134666067Y-84348450D01*
X134672102Y-84453113D01*
X134679479Y-84581055D01*
X134680616Y-84586101D01*
X134680617Y-84586107D01*
X134713711Y-84732956D01*
X134731837Y-84813385D01*
X134733779Y-84818167D01*
X134733780Y-84818171D01*
X134819493Y-85029257D01*
X134821437Y-85034044D01*
X134824136Y-85038448D01*
X134941276Y-85229602D01*
X134945874Y-85237106D01*
X135101804Y-85417117D01*
X135285042Y-85569244D01*
X135289494Y-85571846D01*
X135289499Y-85571849D01*
X135387933Y-85629369D01*
X135490665Y-85689401D01*
X135713152Y-85774360D01*
X135718218Y-85775391D01*
X135718219Y-85775391D01*
X135772556Y-85786446D01*
X135946528Y-85821841D01*
X136080721Y-85826762D01*
X136179360Y-85830379D01*
X136179364Y-85830379D01*
X136184524Y-85830568D01*
X136189644Y-85829912D01*
X136189646Y-85829912D01*
X136415623Y-85800964D01*
X136415624Y-85800964D01*
X136420751Y-85800307D01*
X136505403Y-85774910D01*
X136643916Y-85733354D01*
X136643917Y-85733353D01*
X136648862Y-85731870D01*
X136862733Y-85627095D01*
X136866936Y-85624097D01*
X136866941Y-85624094D01*
X136943755Y-85569303D01*
X137832926Y-85569303D01*
X137838207Y-85576358D01*
X138026421Y-85686341D01*
X138035708Y-85690791D01*
X138248461Y-85772033D01*
X138258363Y-85774910D01*
X138481511Y-85820310D01*
X138491763Y-85821533D01*
X138719338Y-85829877D01*
X138729624Y-85829410D01*
X138955515Y-85800473D01*
X138965601Y-85798330D01*
X139183728Y-85732888D01*
X139193323Y-85729128D01*
X139397837Y-85628937D01*
X139406683Y-85623663D01*
X139472231Y-85576908D01*
X139480632Y-85566208D01*
X139473645Y-85553056D01*
X138671411Y-84750821D01*
X138657468Y-84743208D01*
X138655634Y-84743339D01*
X138649020Y-84747590D01*
X137839683Y-85556928D01*
X137832926Y-85569303D01*
X136943755Y-85569303D01*
X137052416Y-85491796D01*
X137052418Y-85491794D01*
X137056620Y-85488797D01*
X137225316Y-85320689D01*
X137228332Y-85316492D01*
X137228339Y-85316484D01*
X137290770Y-85229602D01*
X137346764Y-85185954D01*
X137417468Y-85179508D01*
X137464226Y-85202969D01*
X137468576Y-85203690D01*
X137478987Y-85199202D01*
X138569505Y-84108685D01*
X138631817Y-84074659D01*
X138702633Y-84079724D01*
X138747695Y-84108685D01*
X139833422Y-85194411D01*
X139846698Y-85201660D01*
X139908605Y-85177878D01*
X139978123Y-85192290D01*
X140020499Y-85229045D01*
X140023174Y-85232699D01*
X140025874Y-85237106D01*
X140181804Y-85417117D01*
X140365042Y-85569244D01*
X140369494Y-85571846D01*
X140369499Y-85571849D01*
X140467933Y-85629369D01*
X140570665Y-85689401D01*
X140793152Y-85774360D01*
X140798218Y-85775391D01*
X140798219Y-85775391D01*
X140852556Y-85786446D01*
X141026528Y-85821841D01*
X141160721Y-85826762D01*
X141259360Y-85830379D01*
X141259364Y-85830379D01*
X141264524Y-85830568D01*
X141269644Y-85829912D01*
X141269646Y-85829912D01*
X141495623Y-85800964D01*
X141495624Y-85800964D01*
X141500751Y-85800307D01*
X141585403Y-85774910D01*
X141723916Y-85733354D01*
X141723917Y-85733353D01*
X141728862Y-85731870D01*
X141942733Y-85627095D01*
X141946936Y-85624097D01*
X141946941Y-85624094D01*
X142132416Y-85491796D01*
X142132418Y-85491794D01*
X142136620Y-85488797D01*
X142305316Y-85320689D01*
X142363579Y-85239607D01*
X142419572Y-85195960D01*
X142490276Y-85189514D01*
X142553240Y-85222316D01*
X142565182Y-85235976D01*
X142565874Y-85237106D01*
X142721804Y-85417117D01*
X142905042Y-85569244D01*
X142909494Y-85571846D01*
X142909499Y-85571849D01*
X143007933Y-85629369D01*
X143110665Y-85689401D01*
X143333152Y-85774360D01*
X143338218Y-85775391D01*
X143338219Y-85775391D01*
X143392556Y-85786446D01*
X143566528Y-85821841D01*
X143700721Y-85826762D01*
X143799360Y-85830379D01*
X143799364Y-85830379D01*
X143804524Y-85830568D01*
X143809644Y-85829912D01*
X143809646Y-85829912D01*
X144035623Y-85800964D01*
X144035624Y-85800964D01*
X144040751Y-85800307D01*
X144125403Y-85774910D01*
X144263916Y-85733354D01*
X144263917Y-85733353D01*
X144268862Y-85731870D01*
X144482733Y-85627095D01*
X144486936Y-85624097D01*
X144486941Y-85624094D01*
X144672416Y-85491796D01*
X144672418Y-85491794D01*
X144676620Y-85488797D01*
X144845316Y-85320689D01*
X144903579Y-85239607D01*
X144959572Y-85195960D01*
X145030276Y-85189514D01*
X145093240Y-85222316D01*
X145105182Y-85235976D01*
X145105874Y-85237106D01*
X145261804Y-85417117D01*
X145445042Y-85569244D01*
X145449494Y-85571846D01*
X145449499Y-85571849D01*
X145547933Y-85629369D01*
X145650665Y-85689401D01*
X145873152Y-85774360D01*
X145878218Y-85775391D01*
X145878219Y-85775391D01*
X145932556Y-85786446D01*
X146106528Y-85821841D01*
X146240721Y-85826762D01*
X146339360Y-85830379D01*
X146339364Y-85830379D01*
X146344524Y-85830568D01*
X146349644Y-85829912D01*
X146349646Y-85829912D01*
X146575623Y-85800964D01*
X146575624Y-85800964D01*
X146580751Y-85800307D01*
X146665403Y-85774910D01*
X146803916Y-85733354D01*
X146803917Y-85733353D01*
X146808862Y-85731870D01*
X147022733Y-85627095D01*
X147026936Y-85624097D01*
X147026941Y-85624094D01*
X147212416Y-85491796D01*
X147212418Y-85491794D01*
X147216620Y-85488797D01*
X147385316Y-85320689D01*
X147443579Y-85239607D01*
X147499572Y-85195960D01*
X147570276Y-85189514D01*
X147633240Y-85222316D01*
X147645182Y-85235976D01*
X147645874Y-85237106D01*
X147801804Y-85417117D01*
X147985042Y-85569244D01*
X147989494Y-85571846D01*
X147989499Y-85571849D01*
X148087933Y-85629369D01*
X148190665Y-85689401D01*
X148413152Y-85774360D01*
X148418218Y-85775391D01*
X148418219Y-85775391D01*
X148472556Y-85786446D01*
X148646528Y-85821841D01*
X148780721Y-85826762D01*
X148879360Y-85830379D01*
X148879364Y-85830379D01*
X148884524Y-85830568D01*
X148889644Y-85829912D01*
X148889646Y-85829912D01*
X149115623Y-85800964D01*
X149115624Y-85800964D01*
X149120751Y-85800307D01*
X149205403Y-85774910D01*
X149343916Y-85733354D01*
X149343917Y-85733353D01*
X149348862Y-85731870D01*
X149562733Y-85627095D01*
X149566936Y-85624097D01*
X149566941Y-85624094D01*
X149752416Y-85491796D01*
X149752418Y-85491794D01*
X149756620Y-85488797D01*
X149925316Y-85320689D01*
X149983579Y-85239607D01*
X150039572Y-85195960D01*
X150110276Y-85189514D01*
X150173240Y-85222316D01*
X150185182Y-85235976D01*
X150185874Y-85237106D01*
X150341804Y-85417117D01*
X150525042Y-85569244D01*
X150529494Y-85571846D01*
X150529499Y-85571849D01*
X150627933Y-85629369D01*
X150730665Y-85689401D01*
X150953152Y-85774360D01*
X150958218Y-85775391D01*
X150958219Y-85775391D01*
X151012556Y-85786446D01*
X151186528Y-85821841D01*
X151320721Y-85826762D01*
X151419360Y-85830379D01*
X151419364Y-85830379D01*
X151424524Y-85830568D01*
X151429644Y-85829912D01*
X151429646Y-85829912D01*
X151655623Y-85800964D01*
X151655624Y-85800964D01*
X151660751Y-85800307D01*
X151745403Y-85774910D01*
X151883916Y-85733354D01*
X151883917Y-85733353D01*
X151888862Y-85731870D01*
X152102733Y-85627095D01*
X152106936Y-85624097D01*
X152106941Y-85624094D01*
X152292416Y-85491796D01*
X152292418Y-85491794D01*
X152296620Y-85488797D01*
X152465316Y-85320689D01*
X152523579Y-85239607D01*
X152579572Y-85195960D01*
X152650276Y-85189514D01*
X152713240Y-85222316D01*
X152725182Y-85235976D01*
X152725874Y-85237106D01*
X152881804Y-85417117D01*
X153065042Y-85569244D01*
X153069494Y-85571846D01*
X153069499Y-85571849D01*
X153167933Y-85629369D01*
X153270665Y-85689401D01*
X153493152Y-85774360D01*
X153498218Y-85775391D01*
X153498219Y-85775391D01*
X153552556Y-85786446D01*
X153726528Y-85821841D01*
X153860721Y-85826762D01*
X153959360Y-85830379D01*
X153959364Y-85830379D01*
X153964524Y-85830568D01*
X153969644Y-85829912D01*
X153969646Y-85829912D01*
X154195623Y-85800964D01*
X154195624Y-85800964D01*
X154200751Y-85800307D01*
X154285403Y-85774910D01*
X154423916Y-85733354D01*
X154423917Y-85733353D01*
X154428862Y-85731870D01*
X154642733Y-85627095D01*
X154646936Y-85624097D01*
X154646941Y-85624094D01*
X154832416Y-85491796D01*
X154832418Y-85491794D01*
X154836620Y-85488797D01*
X155005316Y-85320689D01*
X155063579Y-85239607D01*
X155119572Y-85195960D01*
X155190276Y-85189514D01*
X155253240Y-85222316D01*
X155265182Y-85235976D01*
X155265874Y-85237106D01*
X155421804Y-85417117D01*
X155605042Y-85569244D01*
X155609494Y-85571846D01*
X155609499Y-85571849D01*
X155707933Y-85629369D01*
X155810665Y-85689401D01*
X156033152Y-85774360D01*
X156038218Y-85775391D01*
X156038219Y-85775391D01*
X156092556Y-85786446D01*
X156266528Y-85821841D01*
X156400721Y-85826762D01*
X156499360Y-85830379D01*
X156499364Y-85830379D01*
X156504524Y-85830568D01*
X156509644Y-85829912D01*
X156509646Y-85829912D01*
X156735623Y-85800964D01*
X156735624Y-85800964D01*
X156740751Y-85800307D01*
X156825403Y-85774910D01*
X156963916Y-85733354D01*
X156963917Y-85733353D01*
X156968862Y-85731870D01*
X157182733Y-85627095D01*
X157186936Y-85624097D01*
X157186941Y-85624094D01*
X157372416Y-85491796D01*
X157372418Y-85491794D01*
X157376620Y-85488797D01*
X157545316Y-85320689D01*
X157603579Y-85239607D01*
X157659572Y-85195960D01*
X157730276Y-85189514D01*
X157793240Y-85222316D01*
X157805182Y-85235976D01*
X157805874Y-85237106D01*
X157961804Y-85417117D01*
X158145042Y-85569244D01*
X158149494Y-85571846D01*
X158149499Y-85571849D01*
X158247933Y-85629369D01*
X158350665Y-85689401D01*
X158573152Y-85774360D01*
X158578218Y-85775391D01*
X158578219Y-85775391D01*
X158632556Y-85786446D01*
X158806528Y-85821841D01*
X158940721Y-85826762D01*
X159039360Y-85830379D01*
X159039364Y-85830379D01*
X159044524Y-85830568D01*
X159049644Y-85829912D01*
X159049646Y-85829912D01*
X159275623Y-85800964D01*
X159275624Y-85800964D01*
X159280751Y-85800307D01*
X159365403Y-85774910D01*
X159503916Y-85733354D01*
X159503917Y-85733353D01*
X159508862Y-85731870D01*
X159722733Y-85627095D01*
X159726936Y-85624097D01*
X159726941Y-85624094D01*
X159912416Y-85491796D01*
X159912418Y-85491794D01*
X159916620Y-85488797D01*
X160085316Y-85320689D01*
X160143579Y-85239607D01*
X160199572Y-85195960D01*
X160270276Y-85189514D01*
X160333240Y-85222316D01*
X160345182Y-85235976D01*
X160345874Y-85237106D01*
X160501804Y-85417117D01*
X160685042Y-85569244D01*
X160689494Y-85571846D01*
X160689499Y-85571849D01*
X160787933Y-85629369D01*
X160890665Y-85689401D01*
X161113152Y-85774360D01*
X161118218Y-85775391D01*
X161118219Y-85775391D01*
X161172556Y-85786446D01*
X161346528Y-85821841D01*
X161480721Y-85826762D01*
X161579360Y-85830379D01*
X161579364Y-85830379D01*
X161584524Y-85830568D01*
X161589644Y-85829912D01*
X161589646Y-85829912D01*
X161815623Y-85800964D01*
X161815624Y-85800964D01*
X161820751Y-85800307D01*
X161905403Y-85774910D01*
X162043916Y-85733354D01*
X162043917Y-85733353D01*
X162048862Y-85731870D01*
X162262733Y-85627095D01*
X162266936Y-85624097D01*
X162266941Y-85624094D01*
X162452416Y-85491796D01*
X162452418Y-85491794D01*
X162456620Y-85488797D01*
X162625316Y-85320689D01*
X162683579Y-85239607D01*
X162739572Y-85195960D01*
X162810276Y-85189514D01*
X162873240Y-85222316D01*
X162885182Y-85235976D01*
X162885874Y-85237106D01*
X163041804Y-85417117D01*
X163225042Y-85569244D01*
X163229494Y-85571846D01*
X163229499Y-85571849D01*
X163327933Y-85629369D01*
X163430665Y-85689401D01*
X163653152Y-85774360D01*
X163658218Y-85775391D01*
X163658219Y-85775391D01*
X163712556Y-85786446D01*
X163886528Y-85821841D01*
X164020721Y-85826762D01*
X164119360Y-85830379D01*
X164119364Y-85830379D01*
X164124524Y-85830568D01*
X164129644Y-85829912D01*
X164129646Y-85829912D01*
X164355623Y-85800964D01*
X164355624Y-85800964D01*
X164360751Y-85800307D01*
X164445403Y-85774910D01*
X164583916Y-85733354D01*
X164583917Y-85733353D01*
X164588862Y-85731870D01*
X164802733Y-85627095D01*
X164806936Y-85624097D01*
X164806941Y-85624094D01*
X164992416Y-85491796D01*
X164992418Y-85491794D01*
X164996620Y-85488797D01*
X165165316Y-85320689D01*
X165304290Y-85127286D01*
X165350374Y-85034044D01*
X165407517Y-84918424D01*
X165407518Y-84918422D01*
X165409811Y-84913782D01*
X165479043Y-84685911D01*
X165510129Y-84449792D01*
X165511864Y-84378800D01*
X165492350Y-84141444D01*
X165434331Y-83910463D01*
X165339367Y-83692059D01*
X165322294Y-83665667D01*
X165259965Y-83569322D01*
X165210006Y-83492098D01*
X165049724Y-83315950D01*
X165045673Y-83312751D01*
X165045669Y-83312747D01*
X164866878Y-83171547D01*
X164866873Y-83171544D01*
X164862824Y-83168346D01*
X164858308Y-83165853D01*
X164858305Y-83165851D01*
X164658850Y-83055746D01*
X164658846Y-83055744D01*
X164654326Y-83053249D01*
X164649457Y-83051525D01*
X164649453Y-83051523D01*
X164434705Y-82975476D01*
X164434701Y-82975475D01*
X164429830Y-82973750D01*
X164424740Y-82972843D01*
X164424735Y-82972842D01*
X164297414Y-82950164D01*
X164195364Y-82931986D01*
X164106237Y-82930897D01*
X163962395Y-82929139D01*
X163962393Y-82929139D01*
X163957225Y-82929076D01*
X163721809Y-82965100D01*
X163495438Y-83039089D01*
X163490846Y-83041479D01*
X163490847Y-83041479D01*
X163335129Y-83122541D01*
X163284190Y-83149058D01*
X163280057Y-83152161D01*
X163280054Y-83152163D01*
X163097875Y-83288947D01*
X163093740Y-83292052D01*
X162929202Y-83464231D01*
X162907229Y-83496442D01*
X162893786Y-83516149D01*
X162838874Y-83561151D01*
X162768349Y-83569322D01*
X162704602Y-83538067D01*
X162683906Y-83513584D01*
X162672817Y-83496442D01*
X162672812Y-83496436D01*
X162670006Y-83492098D01*
X162509724Y-83315950D01*
X162505673Y-83312751D01*
X162505669Y-83312747D01*
X162326878Y-83171547D01*
X162326873Y-83171544D01*
X162322824Y-83168346D01*
X162318308Y-83165853D01*
X162318305Y-83165851D01*
X162118850Y-83055746D01*
X162118846Y-83055744D01*
X162114326Y-83053249D01*
X162109457Y-83051525D01*
X162109453Y-83051523D01*
X161894705Y-82975476D01*
X161894701Y-82975475D01*
X161889830Y-82973750D01*
X161884740Y-82972843D01*
X161884735Y-82972842D01*
X161757414Y-82950164D01*
X161655364Y-82931986D01*
X161566237Y-82930897D01*
X161422395Y-82929139D01*
X161422393Y-82929139D01*
X161417225Y-82929076D01*
X161181809Y-82965100D01*
X160955438Y-83039089D01*
X160950846Y-83041479D01*
X160950847Y-83041479D01*
X160795129Y-83122541D01*
X160744190Y-83149058D01*
X160740057Y-83152161D01*
X160740054Y-83152163D01*
X160557875Y-83288947D01*
X160553740Y-83292052D01*
X160389202Y-83464231D01*
X160367229Y-83496442D01*
X160353786Y-83516149D01*
X160298874Y-83561151D01*
X160228349Y-83569322D01*
X160164602Y-83538067D01*
X160143906Y-83513584D01*
X160132817Y-83496442D01*
X160132812Y-83496436D01*
X160130006Y-83492098D01*
X159969724Y-83315950D01*
X159965673Y-83312751D01*
X159965669Y-83312747D01*
X159786878Y-83171547D01*
X159786873Y-83171544D01*
X159782824Y-83168346D01*
X159778308Y-83165853D01*
X159778305Y-83165851D01*
X159578850Y-83055746D01*
X159578846Y-83055744D01*
X159574326Y-83053249D01*
X159569457Y-83051525D01*
X159569453Y-83051523D01*
X159354705Y-82975476D01*
X159354701Y-82975475D01*
X159349830Y-82973750D01*
X159344740Y-82972843D01*
X159344735Y-82972842D01*
X159217414Y-82950164D01*
X159115364Y-82931986D01*
X159026237Y-82930897D01*
X158882395Y-82929139D01*
X158882393Y-82929139D01*
X158877225Y-82929076D01*
X158641809Y-82965100D01*
X158415438Y-83039089D01*
X158410846Y-83041479D01*
X158410847Y-83041479D01*
X158255129Y-83122541D01*
X158204190Y-83149058D01*
X158200057Y-83152161D01*
X158200054Y-83152163D01*
X158017875Y-83288947D01*
X158013740Y-83292052D01*
X157849202Y-83464231D01*
X157827229Y-83496442D01*
X157813786Y-83516149D01*
X157758874Y-83561151D01*
X157688349Y-83569322D01*
X157624602Y-83538067D01*
X157603906Y-83513584D01*
X157592817Y-83496442D01*
X157592812Y-83496436D01*
X157590006Y-83492098D01*
X157429724Y-83315950D01*
X157425673Y-83312751D01*
X157425669Y-83312747D01*
X157246878Y-83171547D01*
X157246873Y-83171544D01*
X157242824Y-83168346D01*
X157238308Y-83165853D01*
X157238305Y-83165851D01*
X157038850Y-83055746D01*
X157038846Y-83055744D01*
X157034326Y-83053249D01*
X157029457Y-83051525D01*
X157029453Y-83051523D01*
X156814705Y-82975476D01*
X156814701Y-82975475D01*
X156809830Y-82973750D01*
X156804740Y-82972843D01*
X156804735Y-82972842D01*
X156677414Y-82950164D01*
X156575364Y-82931986D01*
X156486237Y-82930897D01*
X156342395Y-82929139D01*
X156342393Y-82929139D01*
X156337225Y-82929076D01*
X156101809Y-82965100D01*
X155875438Y-83039089D01*
X155870846Y-83041479D01*
X155870847Y-83041479D01*
X155715129Y-83122541D01*
X155664190Y-83149058D01*
X155660057Y-83152161D01*
X155660054Y-83152163D01*
X155477875Y-83288947D01*
X155473740Y-83292052D01*
X155309202Y-83464231D01*
X155287229Y-83496442D01*
X155273786Y-83516149D01*
X155218874Y-83561151D01*
X155148349Y-83569322D01*
X155084602Y-83538067D01*
X155063906Y-83513584D01*
X155052817Y-83496442D01*
X155052812Y-83496436D01*
X155050006Y-83492098D01*
X154889724Y-83315950D01*
X154885673Y-83312751D01*
X154885669Y-83312747D01*
X154706878Y-83171547D01*
X154706873Y-83171544D01*
X154702824Y-83168346D01*
X154698308Y-83165853D01*
X154698305Y-83165851D01*
X154498850Y-83055746D01*
X154498846Y-83055744D01*
X154494326Y-83053249D01*
X154489457Y-83051525D01*
X154489453Y-83051523D01*
X154274705Y-82975476D01*
X154274701Y-82975475D01*
X154269830Y-82973750D01*
X154264740Y-82972843D01*
X154264735Y-82972842D01*
X154137414Y-82950164D01*
X154035364Y-82931986D01*
X153946237Y-82930897D01*
X153802395Y-82929139D01*
X153802393Y-82929139D01*
X153797225Y-82929076D01*
X153561809Y-82965100D01*
X153335438Y-83039089D01*
X153330846Y-83041479D01*
X153330847Y-83041479D01*
X153175129Y-83122541D01*
X153124190Y-83149058D01*
X153120057Y-83152161D01*
X153120054Y-83152163D01*
X152937875Y-83288947D01*
X152933740Y-83292052D01*
X152769202Y-83464231D01*
X152747229Y-83496442D01*
X152733786Y-83516149D01*
X152678874Y-83561151D01*
X152608349Y-83569322D01*
X152544602Y-83538067D01*
X152523906Y-83513584D01*
X152512817Y-83496442D01*
X152512812Y-83496436D01*
X152510006Y-83492098D01*
X152349724Y-83315950D01*
X152345673Y-83312751D01*
X152345669Y-83312747D01*
X152166878Y-83171547D01*
X152166873Y-83171544D01*
X152162824Y-83168346D01*
X152158308Y-83165853D01*
X152158305Y-83165851D01*
X151958850Y-83055746D01*
X151958846Y-83055744D01*
X151954326Y-83053249D01*
X151949457Y-83051525D01*
X151949453Y-83051523D01*
X151734705Y-82975476D01*
X151734701Y-82975475D01*
X151729830Y-82973750D01*
X151724740Y-82972843D01*
X151724735Y-82972842D01*
X151597414Y-82950164D01*
X151495364Y-82931986D01*
X151406237Y-82930897D01*
X151262395Y-82929139D01*
X151262393Y-82929139D01*
X151257225Y-82929076D01*
X151021809Y-82965100D01*
X150795438Y-83039089D01*
X150790846Y-83041479D01*
X150790847Y-83041479D01*
X150635129Y-83122541D01*
X150584190Y-83149058D01*
X150580057Y-83152161D01*
X150580054Y-83152163D01*
X150397875Y-83288947D01*
X150393740Y-83292052D01*
X150229202Y-83464231D01*
X150207229Y-83496442D01*
X150193786Y-83516149D01*
X150138874Y-83561151D01*
X150068349Y-83569322D01*
X150004602Y-83538067D01*
X149983906Y-83513584D01*
X149972817Y-83496442D01*
X149972812Y-83496436D01*
X149970006Y-83492098D01*
X149809724Y-83315950D01*
X149805673Y-83312751D01*
X149805669Y-83312747D01*
X149626878Y-83171547D01*
X149626873Y-83171544D01*
X149622824Y-83168346D01*
X149618308Y-83165853D01*
X149618305Y-83165851D01*
X149418850Y-83055746D01*
X149418846Y-83055744D01*
X149414326Y-83053249D01*
X149409457Y-83051525D01*
X149409453Y-83051523D01*
X149194705Y-82975476D01*
X149194701Y-82975475D01*
X149189830Y-82973750D01*
X149184740Y-82972843D01*
X149184735Y-82972842D01*
X149057414Y-82950164D01*
X148955364Y-82931986D01*
X148866237Y-82930897D01*
X148722395Y-82929139D01*
X148722393Y-82929139D01*
X148717225Y-82929076D01*
X148481809Y-82965100D01*
X148255438Y-83039089D01*
X148250846Y-83041479D01*
X148250847Y-83041479D01*
X148095129Y-83122541D01*
X148044190Y-83149058D01*
X148040057Y-83152161D01*
X148040054Y-83152163D01*
X147857875Y-83288947D01*
X147853740Y-83292052D01*
X147689202Y-83464231D01*
X147667229Y-83496442D01*
X147653786Y-83516149D01*
X147598874Y-83561151D01*
X147528349Y-83569322D01*
X147464602Y-83538067D01*
X147443906Y-83513584D01*
X147432817Y-83496442D01*
X147432812Y-83496436D01*
X147430006Y-83492098D01*
X147269724Y-83315950D01*
X147265673Y-83312751D01*
X147265669Y-83312747D01*
X147086878Y-83171547D01*
X147086873Y-83171544D01*
X147082824Y-83168346D01*
X147078308Y-83165853D01*
X147078305Y-83165851D01*
X146878850Y-83055746D01*
X146878846Y-83055744D01*
X146874326Y-83053249D01*
X146869457Y-83051525D01*
X146869453Y-83051523D01*
X146654705Y-82975476D01*
X146654701Y-82975475D01*
X146649830Y-82973750D01*
X146644740Y-82972843D01*
X146644735Y-82972842D01*
X146517414Y-82950164D01*
X146415364Y-82931986D01*
X146326237Y-82930897D01*
X146182395Y-82929139D01*
X146182393Y-82929139D01*
X146177225Y-82929076D01*
X145941809Y-82965100D01*
X145910064Y-82975476D01*
X145881059Y-82984956D01*
X145810095Y-82987107D01*
X145752819Y-82954286D01*
X145005850Y-82207317D01*
X144998274Y-82198991D01*
X144994153Y-82192497D01*
X144944334Y-82145714D01*
X144941493Y-82142960D01*
X144921694Y-82123161D01*
X144918569Y-82120737D01*
X144918560Y-82120729D01*
X144918474Y-82120663D01*
X144909449Y-82112955D01*
X144882885Y-82088010D01*
X144877106Y-82082583D01*
X144859269Y-82072777D01*
X144842753Y-82061927D01*
X144826667Y-82049450D01*
X144785934Y-82031824D01*
X144775286Y-82026607D01*
X144750409Y-82012931D01*
X144736403Y-82005231D01*
X144728728Y-82003260D01*
X144728722Y-82003258D01*
X144716689Y-82000169D01*
X144697987Y-81993766D01*
X144679308Y-81985683D01*
X144639513Y-81979380D01*
X144635473Y-81978740D01*
X144623860Y-81976335D01*
X144580882Y-81965300D01*
X144560535Y-81965300D01*
X144540824Y-81963749D01*
X144528550Y-81961805D01*
X144520721Y-81960565D01*
X144512829Y-81961311D01*
X144476544Y-81964741D01*
X144464686Y-81965300D01*
X129720632Y-81965300D01*
X129709393Y-81964770D01*
X129701881Y-81963091D01*
X129693956Y-81963340D01*
X129693955Y-81963340D01*
X129633570Y-81965238D01*
X129629612Y-81965300D01*
X129601617Y-81965300D01*
X129597683Y-81965797D01*
X129597681Y-81965797D01*
X129597594Y-81965808D01*
X129585760Y-81966740D01*
X129541395Y-81968135D01*
X129533782Y-81970347D01*
X129533781Y-81970347D01*
X129521852Y-81973813D01*
X129502488Y-81977823D01*
X129490160Y-81979380D01*
X129490158Y-81979380D01*
X129482301Y-81980373D01*
X129474937Y-81983289D01*
X129474932Y-81983290D01*
X129441044Y-81996707D01*
X129429815Y-82000552D01*
X129413711Y-82005231D01*
X129387207Y-82012931D01*
X129380380Y-82016969D01*
X129380377Y-82016970D01*
X129369694Y-82023288D01*
X129351936Y-82031988D01*
X129340385Y-82036561D01*
X129340379Y-82036565D01*
X129333012Y-82039481D01*
X129326601Y-82044139D01*
X129326599Y-82044140D01*
X129297112Y-82065564D01*
X129287190Y-82072081D01*
X129255832Y-82090626D01*
X129255828Y-82090629D01*
X129249002Y-82094666D01*
X129234618Y-82109050D01*
X129219584Y-82121891D01*
X129203113Y-82133858D01*
X129198060Y-82139966D01*
X129174823Y-82168055D01*
X129166833Y-82176835D01*
X121120117Y-90223550D01*
X121111791Y-90231126D01*
X121105297Y-90235247D01*
X121099874Y-90241022D01*
X121058515Y-90285065D01*
X121055760Y-90287907D01*
X121035961Y-90307706D01*
X121033537Y-90310831D01*
X121033529Y-90310840D01*
X121033463Y-90310926D01*
X121025755Y-90319951D01*
X120995383Y-90352294D01*
X120991565Y-90359238D01*
X120991564Y-90359240D01*
X120985578Y-90370129D01*
X120974727Y-90386647D01*
X120962250Y-90402733D01*
X120944624Y-90443466D01*
X120939407Y-90454114D01*
X120918031Y-90492997D01*
X120916060Y-90500672D01*
X120916058Y-90500678D01*
X120912969Y-90512711D01*
X120906566Y-90531413D01*
X120898483Y-90550092D01*
X120897244Y-90557917D01*
X120891540Y-90593927D01*
X120889135Y-90605540D01*
X120878100Y-90648518D01*
X120878100Y-90668865D01*
X120876549Y-90688576D01*
X120873365Y-90708679D01*
X120874111Y-90716571D01*
X120877541Y-90752856D01*
X120878100Y-90764714D01*
X120878100Y-95555300D01*
X120858098Y-95623421D01*
X120804442Y-95669914D01*
X120752100Y-95681300D01*
X118981346Y-95681300D01*
X118913225Y-95661298D01*
X118866732Y-95607642D01*
X118856628Y-95537368D01*
X118863364Y-95511070D01*
X118866571Y-95502515D01*
X118869345Y-95495116D01*
X118876100Y-95432934D01*
X118876100Y-92120666D01*
X118869345Y-92058484D01*
X118818215Y-91922095D01*
X118730861Y-91805539D01*
X118614305Y-91718185D01*
X118477916Y-91667055D01*
X118415734Y-91660300D01*
X115103466Y-91660300D01*
X115041284Y-91667055D01*
X114904895Y-91718185D01*
X114788339Y-91805539D01*
X114700985Y-91922095D01*
X114649855Y-92058484D01*
X114643100Y-92120666D01*
X114643100Y-95432934D01*
X114649855Y-95495116D01*
X114652629Y-95502515D01*
X114655836Y-95511070D01*
X114661019Y-95581877D01*
X114627099Y-95644246D01*
X114564843Y-95678375D01*
X114537854Y-95681300D01*
X100041346Y-95681300D01*
X99973225Y-95661298D01*
X99926732Y-95607642D01*
X99916628Y-95537368D01*
X99923364Y-95511070D01*
X99926571Y-95502515D01*
X99929345Y-95495116D01*
X99936100Y-95432934D01*
X99936100Y-92120666D01*
X99929345Y-92058484D01*
X99878215Y-91922095D01*
X99790861Y-91805539D01*
X99674305Y-91718185D01*
X99537916Y-91667055D01*
X99475734Y-91660300D01*
X96163466Y-91660300D01*
X96101284Y-91667055D01*
X95964895Y-91718185D01*
X95848339Y-91805539D01*
X95760985Y-91922095D01*
X95709855Y-92058484D01*
X95703100Y-92120666D01*
X95703100Y-95432934D01*
X95709855Y-95495116D01*
X95760985Y-95631505D01*
X95766366Y-95638685D01*
X95767864Y-95641421D01*
X95783032Y-95710778D01*
X95758294Y-95777326D01*
X95732844Y-95800163D01*
X95734091Y-95801770D01*
X95727830Y-95806627D01*
X95721002Y-95810665D01*
X95706614Y-95825053D01*
X95691580Y-95837894D01*
X95675113Y-95849858D01*
X95670060Y-95855966D01*
X95646828Y-95884049D01*
X95638838Y-95892829D01*
X92926117Y-98605550D01*
X92917791Y-98613126D01*
X92911297Y-98617247D01*
X92905874Y-98623022D01*
X92864515Y-98667065D01*
X92861760Y-98669907D01*
X92841961Y-98689706D01*
X92839537Y-98692831D01*
X92839529Y-98692840D01*
X92839463Y-98692926D01*
X92831755Y-98701951D01*
X92801383Y-98734294D01*
X92797565Y-98741238D01*
X92797564Y-98741240D01*
X92791578Y-98752129D01*
X92780727Y-98768647D01*
X92768250Y-98784733D01*
X92750624Y-98825466D01*
X92745407Y-98836114D01*
X92724031Y-98874997D01*
X92722060Y-98882672D01*
X92722058Y-98882678D01*
X92718969Y-98894711D01*
X92712566Y-98913413D01*
X92704483Y-98932092D01*
X92703244Y-98939917D01*
X92697540Y-98975927D01*
X92695135Y-98987540D01*
X92684100Y-99030518D01*
X92684100Y-99050865D01*
X92682549Y-99070576D01*
X92679365Y-99090679D01*
X92680111Y-99098571D01*
X92683541Y-99134856D01*
X92684100Y-99146714D01*
X92684100Y-99512174D01*
X92664098Y-99580295D01*
X92630370Y-99615387D01*
X92450651Y-99741227D01*
X92284027Y-99907851D01*
X92280868Y-99912363D01*
X92172813Y-100066682D01*
X92117356Y-100111011D01*
X92046737Y-100118320D01*
X91983376Y-100086290D01*
X91966387Y-100066682D01*
X91858332Y-99912363D01*
X91855173Y-99907851D01*
X91688549Y-99741227D01*
X91495522Y-99606069D01*
X91490544Y-99603748D01*
X91490541Y-99603746D01*
X91286940Y-99508805D01*
X91286938Y-99508804D01*
X91281958Y-99506482D01*
X91276650Y-99505060D01*
X91276648Y-99505059D01*
X91059660Y-99446918D01*
X91059659Y-99446918D01*
X91054345Y-99445494D01*
X90819600Y-99424956D01*
X90584855Y-99445494D01*
X90579541Y-99446918D01*
X90579540Y-99446918D01*
X90362552Y-99505059D01*
X90362550Y-99505060D01*
X90357242Y-99506482D01*
X90352262Y-99508804D01*
X90352260Y-99508805D01*
X90148659Y-99603746D01*
X90148656Y-99603748D01*
X90143678Y-99606069D01*
X89950651Y-99741227D01*
X89784027Y-99907851D01*
X89648869Y-100100878D01*
X89646548Y-100105856D01*
X89646546Y-100105859D01*
X89569600Y-100270870D01*
X89549282Y-100314442D01*
X89547860Y-100319750D01*
X89547859Y-100319752D01*
X89524211Y-100408010D01*
X89488294Y-100542055D01*
X89467756Y-100776800D01*
X86199020Y-100776800D01*
X86201751Y-95432934D01*
X86703100Y-95432934D01*
X86709855Y-95495116D01*
X86760985Y-95631505D01*
X86848339Y-95748061D01*
X86964895Y-95835415D01*
X87101284Y-95886545D01*
X87163466Y-95893300D01*
X90475734Y-95893300D01*
X90537916Y-95886545D01*
X90674305Y-95835415D01*
X90790861Y-95748061D01*
X90878215Y-95631505D01*
X90929345Y-95495116D01*
X90936100Y-95432934D01*
X90936100Y-92120666D01*
X90929345Y-92058484D01*
X90878215Y-91922095D01*
X90790861Y-91805539D01*
X90674305Y-91718185D01*
X90537916Y-91667055D01*
X90475734Y-91660300D01*
X87163466Y-91660300D01*
X87101284Y-91667055D01*
X86964895Y-91718185D01*
X86848339Y-91805539D01*
X86760985Y-91922095D01*
X86709855Y-92058484D01*
X86703100Y-92120666D01*
X86703100Y-95432934D01*
X86201751Y-95432934D01*
X86208071Y-83064808D01*
X86210109Y-83042304D01*
X86210260Y-83041479D01*
X86212961Y-83026641D01*
X86211358Y-83011338D01*
X86211265Y-82986003D01*
X86227425Y-82819982D01*
X86230439Y-82802258D01*
X86276095Y-82615561D01*
X86281600Y-82598448D01*
X86353357Y-82420158D01*
X86361241Y-82404002D01*
X86457645Y-82237729D01*
X86467750Y-82222859D01*
X86486951Y-82198536D01*
X86546768Y-82122759D01*
X86586827Y-82072013D01*
X86598943Y-82058733D01*
X86738288Y-81926355D01*
X86752172Y-81914935D01*
X86908928Y-81803742D01*
X86924290Y-81794417D01*
X87095282Y-81706661D01*
X87111821Y-81699614D01*
X87293559Y-81637087D01*
X87310933Y-81632466D01*
X87499724Y-81596439D01*
X87517578Y-81594338D01*
X87677107Y-81587032D01*
X87695070Y-81588240D01*
X87703324Y-81588552D01*
X87712159Y-81590161D01*
X87731896Y-81588093D01*
X87752029Y-81585984D01*
X87765151Y-81585298D01*
X210722655Y-81578702D01*
X210745228Y-81580739D01*
G37*
G04 #@! TD.AperFunction*
M02*
